<svg width="103" height="29" viewBox="0 0 103 29" fill="none" xmlns="http://www.w3.org/2000/svg">
<path d="M0.553516 23.1C0.553516 22.26 0.593516 21.24 0.673516 20.04C0.793516 18.84 0.913516 17.8 1.03352 16.92C1.15352 16.04 1.17352 15.14 1.09352 14.22C1.05352 13.26 0.873516 12.48 0.553516 11.88C0.273516 11.24 0.113516 10.68 0.0735158 10.2C0.0735158 9.68 0.133516 9.24 0.253516 8.88C0.413516 8.52 0.573516 8.04 0.733516 7.44C0.893516 6.8 0.973516 6.14 0.973516 5.46C0.973516 4.26 0.993516 3.54 1.03352 3.3C2.43352 3.3 3.37352 3.68 3.85352 4.44C3.93352 4.56 4.25352 5.6 4.81352 7.56C4.89352 7.56 6.65352 7.1 10.0935 6.18C13.5335 5.22 15.7135 4.74 16.6335 4.74C17.7935 4.74 18.5735 4.92 18.9735 5.28C19.3735 5.6 19.5735 6.26 19.5735 7.26C19.5735 7.9 19.3735 8.48 18.9735 9C18.5735 9.52 17.9535 10.1 17.1135 10.74C16.3135 11.38 15.8535 11.76 15.7335 11.88C16.0535 11.92 17.6535 11.98 20.5335 12.06C22.4135 12.14 23.7935 12.54 24.6735 13.26C25.5935 13.94 26.0535 15.08 26.0535 16.68C26.0535 17.92 25.6135 19.06 24.7335 20.1C23.8935 21.14 22.9135 21.96 21.7935 22.56C20.7135 23.16 19.4735 23.7 18.0735 24.18C17.7935 24.3 16.6935 24.74 14.7735 25.5C12.8535 26.22 11.1135 26.84 9.55352 27.36C7.99352 27.84 6.89352 28.04 6.25352 27.96C6.13352 28.24 5.89352 28.4 5.53352 28.44C5.21352 28.44 4.97352 28.28 4.81352 27.96C3.93352 28.16 3.37352 28.26 3.13352 28.26C2.53352 28.26 2.05352 28.14 1.69352 27.9C1.37352 27.62 1.13352 27.18 0.973516 26.58C0.813516 25.98 0.713516 25.48 0.673516 25.08C0.633516 24.64 0.593516 23.98 0.553516 23.1ZM12.9135 9.48C10.4735 9.2 8.39352 9.64 6.67352 10.8C4.95352 11.92 4.33352 13.54 4.81352 15.66C5.41352 15.38 6.35352 14.74 7.63352 13.74C8.95352 12.7 10.1335 11.74 11.1735 10.86C12.2135 9.98 12.7935 9.52 12.9135 9.48ZM23.2935 16.14C21.8535 15.62 20.2135 15.34 18.3735 15.3C16.5735 15.22 14.7935 15.42 13.0335 15.9C11.3135 16.34 9.75352 16.96 8.35352 17.76C6.95352 18.56 5.87352 19.62 5.11352 20.94C4.35352 22.22 4.09352 23.62 4.33352 25.14C14.0135 23.42 20.3335 20.42 23.2935 16.14ZM35.5087 26.58C34.6287 26.86 33.8087 26.84 33.0487 26.52C32.3287 26.2 31.9087 25.74 31.7887 25.14C31.6687 24.54 31.8887 23.92 32.4487 23.28C32.9287 22.76 33.6287 22.44 34.5487 22.32C35.0287 22.24 36.6687 22 39.4687 21.6C42.2687 21.16 44.4287 20.76 45.9487 20.4C46.5887 20.24 47.5087 19.92 48.7087 19.44C49.9087 18.92 50.8687 18.64 51.5887 18.6C52.2287 18.52 52.7887 18.74 53.2687 19.26C53.7487 19.74 54.0087 20.26 54.0487 20.82C54.0487 21.14 53.9087 21.44 53.6287 21.72C53.3487 21.96 52.9287 22.14 52.3687 22.26C46.7687 23.3 41.1487 24.74 35.5087 26.58ZM52.1287 11.82C52.8087 11.78 53.4087 11.92 53.9287 12.24C54.4487 12.56 54.7087 12.98 54.7087 13.5C54.7087 14.38 54.0287 14.94 52.6687 15.18C52.2687 15.22 51.6287 15.32 50.7487 15.48C49.8687 15.6 49.3087 15.68 49.0687 15.72C48.8287 15.76 48.3887 15.84 47.7487 15.96C47.1487 16.08 46.6287 16.22 46.1887 16.38C45.7487 16.5 45.1687 16.66 44.4487 16.86C43.7287 17.06 42.9287 17.3 42.0487 17.58C39.7287 18.3 38.1687 18.92 37.3687 19.44C35.6487 20.56 34.7887 22.18 34.7887 24.3C34.7887 26.26 34.6687 27.64 34.4287 28.44C33.1487 28.24 32.3487 27.48 32.0287 26.16C31.6287 24.48 31.1687 23.34 30.6487 22.74C30.5687 22.66 30.4087 22.52 30.1687 22.32C29.9687 22.12 29.8487 22 29.8087 21.96C29.7687 21.92 29.6687 21.82 29.5087 21.66C29.3887 21.5 29.3287 21.4 29.3287 21.36C29.3287 21.28 29.2887 21.18 29.2087 21.06C29.1287 20.94 29.1087 20.86 29.1487 20.82C29.1887 20.74 29.2087 20.64 29.2087 20.52C29.2487 20.4 29.2887 20.3 29.3287 20.22C29.4087 20.1 29.4887 19.98 29.5687 19.86C29.6887 19.7 29.8287 19.54 29.9887 19.38C30.0687 19.26 30.2087 19.1 30.4087 18.9C30.6087 18.7 30.7287 18.58 30.7687 18.54C30.8087 18.46 30.8887 18.36 31.0087 18.24C31.1287 18.08 31.1887 17.94 31.1887 17.82C31.2287 17.7 31.2887 17.54 31.3687 17.34C31.4487 17.14 31.5287 16.9 31.6087 16.62C32.0487 14.74 31.6487 13.78 30.4087 13.74C29.6087 13.7 29.0287 13.32 28.6687 12.6C28.3087 11.88 28.4487 11.28 29.0887 10.8C29.6487 10.4 30.0887 10.04 30.4087 9.72C30.7287 9.4 31.0287 8.94 31.3087 8.34C31.6287 7.74 31.8087 7.06 31.8487 6.3C31.9687 4.54 32.5087 3.4 33.4687 2.88C33.5487 2.96 33.6487 3.06 33.7687 3.18C33.9287 3.26 34.0287 3.34 34.0687 3.42C34.1487 3.5 34.2487 3.6 34.3687 3.72C34.4887 3.8 34.5687 3.9 34.6087 4.02C34.6887 4.14 34.7687 4.3 34.8487 4.5C34.9287 4.7 35.0087 4.92 35.0887 5.16L35.8687 7.56C36.3487 7.4 37.0087 7.14 37.8487 6.78C38.7287 6.38 39.4887 6.02 40.1287 5.7C40.8087 5.38 41.6087 5.06 42.5287 4.74C43.4887 4.38 44.3087 4.12 44.9887 3.96C45.7087 3.8 46.5087 3.7 47.3887 3.66C48.3087 3.62 49.0887 3.74 49.7287 4.02C50.2087 4.18 50.6287 4.58 50.9887 5.22C49.6687 6.06 47.3487 7.04 44.0287 8.16C40.7487 9.24 38.5287 10.06 37.3687 10.62C35.1287 11.7 34.3087 13.54 34.9087 16.14C36.7487 15.9 39.5687 15.16 43.3687 13.92C47.1687 12.68 50.0887 11.98 52.1287 11.82ZM69.0295 2.34C70.2295 2.94 71.1495 3.3 71.7895 3.42C72.4695 3.5 73.6495 3.44 75.3295 3.24C76.4495 3.08 77.3095 3 77.9095 3C78.5095 3 79.1095 3.16 79.7095 3.48C80.1895 3.72 80.4295 4.3 80.4295 5.22C79.2695 5.22 77.2095 5.54 74.2495 6.18C73.6895 6.3 73.2295 6.56 72.8695 6.96C72.5495 7.36 72.3495 7.9 72.2695 8.58C72.2295 9.26 72.2095 9.9 72.2095 10.5C72.2095 11.1 72.2495 11.84 72.3295 12.72C72.4095 13.56 72.4495 14.2 72.4495 14.64C72.4495 15.8 72.3695 17.42 72.2095 19.5C72.0495 21.58 71.9695 23.18 71.9695 24.3C71.9695 26.14 71.8295 27.3 71.5495 27.78C71.3095 28.34 70.8495 28.64 70.1695 28.68C69.4895 28.72 68.9495 28.34 68.5495 27.54C68.1495 26.74 67.9895 25.94 68.0695 25.14C68.1095 24.74 68.2695 23.56 68.5495 21.6C68.8295 19.64 69.0295 18.02 69.1495 16.74C69.2695 15.42 69.3295 14.08 69.3295 12.72C69.3295 11.92 69.3095 11.26 69.2695 10.74C69.2295 10.18 69.1095 9.6 68.9095 9C68.7495 8.4 68.5295 7.92 68.2495 7.56C67.9695 7.2 67.5695 6.9 67.0495 6.66C66.5695 6.42 65.9895 6.3 65.3095 6.3C64.7895 6.3 63.8495 6.42 62.4895 6.66C61.1695 6.86 59.9895 6.96 58.9495 6.96C57.9495 6.92 57.1695 6.68 56.6095 6.24C55.8895 5.64 55.4495 4.66 55.2895 3.3C56.8895 2.94 58.4495 2.86 59.9695 3.06C61.4895 3.22 63.1495 3.3 64.9495 3.3C66.7495 3.26 68.1095 2.94 69.0295 2.34ZM85.7521 27.78C84.8321 28.06 84.0321 28.06 83.3521 27.78C82.7121 27.46 82.3921 26.9 82.3921 26.1C82.3921 25.82 82.4921 25.58 82.6921 25.38C82.8921 25.18 83.1721 25.02 83.5321 24.9C83.9321 24.78 84.3121 24.68 84.6721 24.6C85.0321 24.52 85.4321 24.44 85.8721 24.36C86.3521 24.28 86.7121 24.22 86.9521 24.18C89.3521 23.54 91.6521 22.3 93.8521 20.46C96.0521 18.62 97.8521 16.54 99.2521 14.22C97.7721 13.94 96.2121 14.02 94.5721 14.46C92.9721 14.86 91.3121 15.4 89.5921 16.08C87.8721 16.76 86.4121 17.14 85.2121 17.22C84.4921 17.26 83.9121 17.06 83.4721 16.62C83.0321 16.14 82.8121 15.56 82.8121 14.88C82.8121 13.28 84.0121 11.48 86.4121 9.48L93.4321 3.48C95.5121 1.72 97.1921 0.839999 98.4721 0.839999C99.3921 0.839999 99.9721 1.34 100.212 2.34C95.6121 4.3 91.3521 7.8 87.4321 12.84C88.0321 12.92 90.0721 12.64 93.5521 12C97.0721 11.32 99.1121 11.02 99.6721 11.1C100.272 11.14 100.712 11.18 100.992 11.22C101.272 11.26 101.592 11.34 101.952 11.46C102.312 11.58 102.552 11.76 102.672 12C102.832 12.24 102.932 12.58 102.972 13.02C102.972 13.66 102.672 14.54 102.072 15.66C100.592 18.38 98.3721 20.82 95.4121 22.98C92.4921 25.1 89.2721 26.7 85.7521 27.78Z" fill="white"/>
</svg>
