<svg width="306" height="31" viewBox="0 0 306 31" fill="none" xmlns="http://www.w3.org/2000/svg">
<path d="M0.541797 25.1C0.541797 24.26 0.581797 23.24 0.661797 22.04C0.781797 20.84 0.901797 19.8 1.0218 18.92C1.1418 18.04 1.1618 17.14 1.0818 16.22C1.0418 15.26 0.861797 14.48 0.541797 13.88C0.261797 13.24 0.101797 12.68 0.061797 12.2C0.061797 11.68 0.121797 11.24 0.241797 10.88C0.401797 10.52 0.561797 10.04 0.721797 9.44C0.881797 8.8 0.961797 8.14 0.961797 7.46C0.961797 6.26 0.981797 5.54 1.0218 5.3C2.4218 5.3 3.3618 5.68 3.8418 6.44C3.9218 6.56 4.2418 7.6 4.8018 9.56C4.8818 9.56 6.6418 9.1 10.0818 8.18C13.5218 7.22 15.7018 6.74 16.6218 6.74C17.7818 6.74 18.5618 6.92 18.9618 7.28C19.3618 7.6 19.5618 8.26 19.5618 9.26C19.5618 9.9 19.3618 10.48 18.9618 11C18.5618 11.52 17.9418 12.1 17.1018 12.74C16.3018 13.38 15.8418 13.76 15.7218 13.88C16.0418 13.92 17.6418 13.98 20.5218 14.06C22.4018 14.14 23.7818 14.54 24.6618 15.26C25.5818 15.94 26.0418 17.08 26.0418 18.68C26.0418 19.92 25.6018 21.06 24.7218 22.1C23.8818 23.14 22.9018 23.96 21.7818 24.56C20.7018 25.16 19.4618 25.7 18.0618 26.18C17.7818 26.3 16.6818 26.74 14.7618 27.5C12.8418 28.22 11.1018 28.84 9.5418 29.36C7.9818 29.84 6.8818 30.04 6.2418 29.96C6.1218 30.24 5.8818 30.4 5.5218 30.44C5.2018 30.44 4.9618 30.28 4.8018 29.96C3.9218 30.16 3.3618 30.26 3.1218 30.26C2.5218 30.26 2.0418 30.14 1.6818 29.9C1.3618 29.62 1.1218 29.18 0.961797 28.58C0.801797 27.98 0.701797 27.48 0.661797 27.08C0.621797 26.64 0.581797 25.98 0.541797 25.1ZM12.9018 11.48C10.4618 11.2 8.3818 11.64 6.6618 12.8C4.9418 13.92 4.3218 15.54 4.8018 17.66C5.4018 17.38 6.3418 16.74 7.6218 15.74C8.9418 14.7 10.1218 13.74 11.1618 12.86C12.2018 11.98 12.7818 11.52 12.9018 11.48ZM23.2818 18.14C21.8418 17.62 20.2018 17.34 18.3618 17.3C16.5618 17.22 14.7818 17.42 13.0218 17.9C11.3018 18.34 9.7418 18.96 8.3418 19.76C6.9418 20.56 5.8618 21.62 5.1018 22.94C4.3418 24.22 4.0818 25.62 4.3218 27.14C14.0018 25.42 20.3218 22.42 23.2818 18.14ZM35.497 28.58C34.617 28.86 33.797 28.84 33.037 28.52C32.317 28.2 31.897 27.74 31.777 27.14C31.657 26.54 31.877 25.92 32.437 25.28C32.917 24.76 33.617 24.44 34.537 24.32C35.017 24.24 36.657 24 39.457 23.6C42.257 23.16 44.417 22.76 45.937 22.4C46.577 22.24 47.497 21.92 48.697 21.44C49.897 20.92 50.857 20.64 51.577 20.6C52.217 20.52 52.777 20.74 53.257 21.26C53.737 21.74 53.997 22.26 54.037 22.82C54.037 23.14 53.897 23.44 53.617 23.72C53.337 23.96 52.917 24.14 52.357 24.26C46.757 25.3 41.137 26.74 35.497 28.58ZM52.117 13.82C52.797 13.78 53.397 13.92 53.917 14.24C54.437 14.56 54.697 14.98 54.697 15.5C54.697 16.38 54.017 16.94 52.657 17.18C52.257 17.22 51.617 17.32 50.737 17.48C49.857 17.6 49.297 17.68 49.057 17.72C48.817 17.76 48.377 17.84 47.737 17.96C47.137 18.08 46.617 18.22 46.177 18.38C45.737 18.5 45.157 18.66 44.437 18.86C43.717 19.06 42.917 19.3 42.037 19.58C39.717 20.3 38.157 20.92 37.357 21.44C35.637 22.56 34.777 24.18 34.777 26.3C34.777 28.26 34.657 29.64 34.417 30.44C33.137 30.24 32.337 29.48 32.017 28.16C31.617 26.48 31.157 25.34 30.637 24.74C30.557 24.66 30.397 24.52 30.157 24.32C29.957 24.12 29.837 24 29.797 23.96C29.757 23.92 29.657 23.82 29.497 23.66C29.377 23.5 29.317 23.4 29.317 23.36C29.317 23.28 29.277 23.18 29.197 23.06C29.117 22.94 29.097 22.86 29.137 22.82C29.177 22.74 29.197 22.64 29.197 22.52C29.237 22.4 29.277 22.3 29.317 22.22C29.397 22.1 29.477 21.98 29.557 21.86C29.677 21.7 29.817 21.54 29.977 21.38C30.057 21.26 30.197 21.1 30.397 20.9C30.597 20.7 30.717 20.58 30.757 20.54C30.797 20.46 30.877 20.36 30.997 20.24C31.117 20.08 31.177 19.94 31.177 19.82C31.217 19.7 31.277 19.54 31.357 19.34C31.437 19.14 31.517 18.9 31.597 18.62C32.037 16.74 31.637 15.78 30.397 15.74C29.597 15.7 29.017 15.32 28.657 14.6C28.297 13.88 28.437 13.28 29.077 12.8C29.637 12.4 30.077 12.04 30.397 11.72C30.717 11.4 31.017 10.94 31.297 10.34C31.617 9.74 31.797 9.06 31.837 8.3C31.957 6.54 32.497 5.4 33.457 4.88C33.537 4.96 33.637 5.06 33.757 5.18C33.917 5.26 34.017 5.34 34.057 5.42C34.137 5.5 34.237 5.6 34.357 5.72C34.477 5.8 34.557 5.9 34.597 6.02C34.677 6.14 34.757 6.3 34.837 6.5C34.917 6.7 34.997 6.92 35.077 7.16L35.857 9.56C36.337 9.4 36.997 9.14 37.837 8.78C38.717 8.38 39.477 8.02 40.117 7.7C40.797 7.38 41.597 7.06 42.517 6.74C43.477 6.38 44.297 6.12 44.977 5.96C45.697 5.8 46.497 5.7 47.377 5.66C48.297 5.62 49.077 5.74 49.717 6.02C50.197 6.18 50.617 6.58 50.977 7.22C49.657 8.06 47.337 9.04 44.017 10.16C40.737 11.24 38.517 12.06 37.357 12.62C35.117 13.7 34.297 15.54 34.897 18.14C36.737 17.9 39.557 17.16 43.357 15.92C47.157 14.68 50.077 13.98 52.117 13.82ZM69.0177 4.34C70.2177 4.94 71.1377 5.3 71.7777 5.42C72.4577 5.5 73.6377 5.44 75.3177 5.24C76.4377 5.08 77.2977 5 77.8977 5C78.4977 5 79.0977 5.16 79.6977 5.48C80.1777 5.72 80.4177 6.3 80.4177 7.22C79.2577 7.22 77.1977 7.54 74.2377 8.18C73.6777 8.3 73.2177 8.56 72.8577 8.96C72.5377 9.36 72.3377 9.9 72.2577 10.58C72.2177 11.26 72.1977 11.9 72.1977 12.5C72.1977 13.1 72.2377 13.84 72.3177 14.72C72.3977 15.56 72.4377 16.2 72.4377 16.64C72.4377 17.8 72.3577 19.42 72.1977 21.5C72.0377 23.58 71.9577 25.18 71.9577 26.3C71.9577 28.14 71.8177 29.3 71.5377 29.78C71.2977 30.34 70.8377 30.64 70.1577 30.68C69.4777 30.72 68.9377 30.34 68.5377 29.54C68.1377 28.74 67.9777 27.94 68.0577 27.14C68.0977 26.74 68.2577 25.56 68.5377 23.6C68.8177 21.64 69.0177 20.02 69.1377 18.74C69.2577 17.42 69.3177 16.08 69.3177 14.72C69.3177 13.92 69.2977 13.26 69.2577 12.74C69.2177 12.18 69.0977 11.6 68.8977 11C68.7377 10.4 68.5177 9.92 68.2377 9.56C67.9577 9.2 67.5577 8.9 67.0377 8.66C66.5577 8.42 65.9777 8.3 65.2977 8.3C64.7777 8.3 63.8377 8.42 62.4777 8.66C61.1577 8.86 59.9777 8.96 58.9377 8.96C57.9377 8.92 57.1577 8.68 56.5977 8.24C55.8777 7.64 55.4377 6.66 55.2777 5.3C56.8777 4.94 58.4377 4.86 59.9577 5.06C61.4777 5.22 63.1377 5.3 64.9377 5.3C66.7377 5.26 68.0977 4.94 69.0177 4.34ZM115.74 29.78C114.82 30.06 114.02 30.06 113.34 29.78C112.7 29.46 112.38 28.9 112.38 28.1C112.38 27.82 112.48 27.58 112.68 27.38C112.88 27.18 113.16 27.02 113.52 26.9C113.92 26.78 114.3 26.68 114.66 26.6C115.02 26.52 115.42 26.44 115.86 26.36C116.34 26.28 116.7 26.22 116.94 26.18C119.34 25.54 121.64 24.3 123.84 22.46C126.04 20.62 127.84 18.54 129.24 16.22C127.76 15.94 126.2 16.02 124.56 16.46C122.96 16.86 121.3 17.4 119.58 18.08C117.86 18.76 116.4 19.14 115.2 19.22C114.48 19.26 113.9 19.06 113.46 18.62C113.02 18.14 112.8 17.56 112.8 16.88C112.8 15.28 114 13.48 116.4 11.48L123.42 5.48C125.5 3.72 127.18 2.84 128.46 2.84C129.38 2.84 129.96 3.34 130.2 4.34C125.6 6.3 121.34 9.8 117.42 14.84C118.02 14.92 120.06 14.64 123.54 14C127.06 13.32 129.1 13.02 129.66 13.1C130.26 13.14 130.7 13.18 130.98 13.22C131.26 13.26 131.58 13.34 131.94 13.46C132.3 13.58 132.54 13.76 132.66 14C132.82 14.24 132.92 14.58 132.96 15.02C132.96 15.66 132.66 16.54 132.06 17.66C130.58 20.38 128.36 22.82 125.4 24.98C122.48 27.1 119.26 28.7 115.74 29.78ZM160.615 2.48V1.52C161.095 0.799998 161.615 0.439998 162.175 0.439998C162.735 0.559999 163.195 0.879999 163.555 1.4C163.915 1.88 164.135 2.46 164.215 3.14C164.295 3.78 164.355 4.5 164.395 5.3C164.435 6.1 164.415 6.92 164.335 7.76C164.295 8.56 164.295 9.34 164.335 10.1C164.255 10.7 164.555 13.42 165.235 18.26C165.915 23.1 166.255 26.22 166.255 27.62C166.255 28.26 166.095 28.78 165.775 29.18C165.495 29.58 165.095 29.8 164.575 29.84C163.535 29.84 162.835 29.12 162.475 27.68C162.275 26.92 162.095 24.68 161.935 20.96C161.775 17.2 161.675 15.12 161.635 14.72C161.275 12.12 160.755 10.1 160.075 8.66C156.715 12.26 154.155 16.38 152.395 21.02C152.315 21.18 152.175 21.74 151.975 22.7C151.775 23.62 151.515 24.32 151.195 24.8C150.915 25.24 150.475 25.44 149.875 25.4C149.435 25.56 148.535 25.1 147.175 24.02C145.855 22.94 144.575 21.84 143.335 20.72C142.095 19.56 141.355 19.02 141.115 19.1L140.095 22.94C139.695 24.34 139.095 25.42 138.295 26.18C137.895 25.42 137.675 24.54 137.635 23.54C137.595 22.54 137.675 21.24 137.875 19.64C138.115 18 138.255 17.02 138.295 16.7C138.335 15.94 137.775 14.72 136.615 13.04C135.495 11.32 134.955 10.16 134.995 9.56C135.235 9.56 135.755 9.5 136.555 9.38C137.355 9.22 137.775 9.14 137.815 9.14C137.735 7.94 137.715 7.22 137.755 6.98C137.795 6.7 137.975 6 138.295 4.88C139.335 5.56 139.995 6.28 140.275 7.04C140.555 7.76 140.815 9.24 141.055 11.48C141.295 13.4 142.075 15.18 143.395 16.82C144.755 18.46 146.375 19.86 148.255 21.02L160.615 2.48ZM185.645 21.74C184.565 22.06 183.625 22.26 182.825 22.34C182.065 22.38 181.125 22.36 180.005 22.28C178.885 22.16 177.965 22.1 177.245 22.1C175.405 22.1 174.245 22.68 173.765 23.84L172.865 27.92C172.585 29.36 171.785 30.36 170.465 30.92C170.185 29.88 170.045 29.02 170.045 28.34C170.045 27.62 170.165 26.84 170.405 26C170.685 25.16 170.965 24.44 171.245 23.84C171.565 23.2 171.885 22.44 172.205 21.56C172.525 20.68 172.725 19.86 172.805 19.1C172.765 18.74 172.925 18.38 173.285 18.02C173.685 17.66 174.085 17.36 174.485 17.12C174.925 16.88 175.165 16.74 175.205 16.7C176.085 16.06 177.245 14.64 178.685 12.44C180.165 10.2 180.885 8.56 180.845 7.52C180.845 7.16 180.745 6.7 180.545 6.14C180.345 5.58 180.205 5.18 180.125 4.94C180.045 4.7 180.145 4.34 180.425 3.86C180.585 3.58 181.265 3.22 182.465 2.78C183.705 2.34 184.605 2.08 185.165 2C185.205 2.32 185.305 3.4 185.465 5.24C185.625 7.08 185.845 8.22 186.125 8.66C187.005 10.26 188.285 12.72 189.965 16.04C191.645 19.36 193.225 22.24 194.705 24.68C195.945 26.76 196.565 28.52 196.565 29.96C195.365 29.76 194.365 29.22 193.565 28.34C193.165 27.94 192.245 26.28 190.805 23.36C189.925 21.52 188.205 20.98 185.645 21.74ZM179.405 14.54C178.605 15.54 178.245 16.5 178.325 17.42C178.445 18.34 179.145 18.9 180.425 19.1C183.745 19.58 186.425 19.58 188.465 19.1C187.945 17.46 187.125 15.76 186.005 14C184.925 12.24 183.845 10.94 182.765 10.1C182.445 10.5 181.325 11.98 179.405 14.54ZM201.537 7.28C202.657 7.08 204.637 7.02 207.477 7.1C210.357 7.18 212.277 7.06 213.237 6.74C213.597 6.78 214.137 6.82 214.857 6.86C215.577 6.9 216.177 6.96 216.657 7.04C217.137 7.12 217.637 7.22 218.157 7.34C218.717 7.46 219.137 7.68 219.417 8C219.697 8.32 219.837 8.72 219.837 9.2C219.837 9.8 219.617 10.38 219.177 10.94C218.737 11.46 218.277 11.86 217.797 12.14C217.357 12.42 216.717 12.8 215.877 13.28C215.077 13.72 214.557 14.02 214.317 14.18C213.517 14.66 210.937 15.98 206.577 18.14C208.337 19.78 210.377 21.2 212.697 22.4C215.057 23.56 217.937 24.82 221.337 26.18C222.977 26.82 223.897 28.08 224.097 29.96C223.337 30.04 222.477 29.92 221.517 29.6C220.557 29.28 219.517 28.84 218.397 28.28C217.317 27.68 216.537 27.3 216.057 27.14C215.097 26.82 213.077 25.74 209.997 23.9C206.957 22.02 205.037 21.1 204.237 21.14C203.517 21.18 203.097 21.62 202.977 22.46C202.857 23.26 202.797 24.24 202.797 25.4C202.837 26.52 202.697 27.34 202.377 27.86C202.057 27.9 201.557 27.98 200.877 28.1C200.757 27.7 200.657 27.3 200.577 26.9C200.497 26.46 200.417 25.96 200.337 25.4C200.297 24.8 200.257 24.34 200.217 24.02C200.177 23.7 200.137 23.18 200.097 22.46C200.097 21.7 200.097 21.2 200.097 20.96C200.097 20.72 200.097 20.14 200.097 19.22C200.097 18.3 200.097 17.76 200.097 17.6C200.097 16.88 200.037 15.88 199.917 14.6C199.797 13.32 199.737 12.2 199.737 11.24C199.777 10.28 199.937 9.4 200.217 8.6C200.537 7.84 200.977 7.4 201.537 7.28ZM215.097 10.1C209.417 9.34 205.677 9.84 203.877 11.6C203.717 11.8 203.597 12.02 203.517 12.26C203.437 12.46 203.397 12.76 203.397 13.16C203.397 13.52 203.397 13.8 203.397 14C203.437 14.2 203.497 14.54 203.577 15.02C203.697 15.46 203.757 15.72 203.757 15.8C205.957 15.36 207.897 14.7 209.577 13.82C211.297 12.9 213.137 11.66 215.097 10.1ZM239.936 4.34C241.136 4.94 242.056 5.3 242.696 5.42C243.376 5.5 244.556 5.44 246.236 5.24C247.356 5.08 248.216 5 248.816 5C249.416 5 250.016 5.16 250.616 5.48C251.096 5.72 251.336 6.3 251.336 7.22C250.176 7.22 248.116 7.54 245.156 8.18C244.596 8.3 244.136 8.56 243.776 8.96C243.456 9.36 243.256 9.9 243.176 10.58C243.136 11.26 243.116 11.9 243.116 12.5C243.116 13.1 243.156 13.84 243.236 14.72C243.316 15.56 243.356 16.2 243.356 16.64C243.356 17.8 243.276 19.42 243.116 21.5C242.956 23.58 242.876 25.18 242.876 26.3C242.876 28.14 242.736 29.3 242.456 29.78C242.216 30.34 241.756 30.64 241.076 30.68C240.396 30.72 239.856 30.34 239.456 29.54C239.056 28.74 238.896 27.94 238.976 27.14C239.016 26.74 239.176 25.56 239.456 23.6C239.736 21.64 239.936 20.02 240.056 18.74C240.176 17.42 240.236 16.08 240.236 14.72C240.236 13.92 240.216 13.26 240.176 12.74C240.136 12.18 240.016 11.6 239.816 11C239.656 10.4 239.436 9.92 239.156 9.56C238.876 9.2 238.476 8.9 237.956 8.66C237.476 8.42 236.896 8.3 236.216 8.3C235.696 8.3 234.756 8.42 233.396 8.66C232.076 8.86 230.896 8.96 229.856 8.96C228.856 8.92 228.076 8.68 227.516 8.24C226.796 7.64 226.356 6.66 226.196 5.3C227.796 4.94 229.356 4.86 230.876 5.06C232.396 5.22 234.056 5.3 235.856 5.3C237.656 5.26 239.016 4.94 239.936 4.34ZM260.438 28.58C259.558 28.86 258.738 28.84 257.978 28.52C257.258 28.2 256.838 27.74 256.718 27.14C256.598 26.54 256.818 25.92 257.378 25.28C257.858 24.76 258.558 24.44 259.478 24.32C259.958 24.24 261.598 24 264.398 23.6C267.198 23.16 269.358 22.76 270.878 22.4C271.518 22.24 272.438 21.92 273.638 21.44C274.838 20.92 275.798 20.64 276.518 20.6C277.158 20.52 277.718 20.74 278.198 21.26C278.678 21.74 278.938 22.26 278.978 22.82C278.978 23.14 278.838 23.44 278.558 23.72C278.278 23.96 277.858 24.14 277.298 24.26C271.698 25.3 266.078 26.74 260.438 28.58ZM277.058 13.82C277.738 13.78 278.338 13.92 278.858 14.24C279.378 14.56 279.638 14.98 279.638 15.5C279.638 16.38 278.958 16.94 277.598 17.18C277.198 17.22 276.558 17.32 275.678 17.48C274.798 17.6 274.238 17.68 273.998 17.72C273.758 17.76 273.318 17.84 272.678 17.96C272.078 18.08 271.558 18.22 271.118 18.38C270.678 18.5 270.098 18.66 269.378 18.86C268.658 19.06 267.858 19.3 266.978 19.58C264.658 20.3 263.098 20.92 262.298 21.44C260.578 22.56 259.718 24.18 259.718 26.3C259.718 28.26 259.598 29.64 259.358 30.44C258.078 30.24 257.278 29.48 256.958 28.16C256.558 26.48 256.098 25.34 255.578 24.74C255.498 24.66 255.338 24.52 255.098 24.32C254.898 24.12 254.778 24 254.738 23.96C254.698 23.92 254.598 23.82 254.438 23.66C254.318 23.5 254.258 23.4 254.258 23.36C254.258 23.28 254.218 23.18 254.138 23.06C254.058 22.94 254.038 22.86 254.078 22.82C254.118 22.74 254.138 22.64 254.138 22.52C254.178 22.4 254.218 22.3 254.258 22.22C254.338 22.1 254.418 21.98 254.498 21.86C254.618 21.7 254.758 21.54 254.918 21.38C254.998 21.26 255.138 21.1 255.338 20.9C255.538 20.7 255.658 20.58 255.698 20.54C255.738 20.46 255.818 20.36 255.938 20.24C256.058 20.08 256.118 19.94 256.118 19.82C256.158 19.7 256.218 19.54 256.298 19.34C256.378 19.14 256.458 18.9 256.538 18.62C256.978 16.74 256.578 15.78 255.338 15.74C254.538 15.7 253.958 15.32 253.598 14.6C253.238 13.88 253.378 13.28 254.018 12.8C254.578 12.4 255.018 12.04 255.338 11.72C255.658 11.4 255.958 10.94 256.238 10.34C256.558 9.74 256.738 9.06 256.778 8.3C256.898 6.54 257.438 5.4 258.398 4.88C258.478 4.96 258.578 5.06 258.698 5.18C258.858 5.26 258.958 5.34 258.998 5.42C259.078 5.5 259.178 5.6 259.298 5.72C259.418 5.8 259.498 5.9 259.538 6.02C259.618 6.14 259.698 6.3 259.778 6.5C259.858 6.7 259.938 6.92 260.018 7.16L260.798 9.56C261.278 9.4 261.938 9.14 262.778 8.78C263.658 8.38 264.418 8.02 265.058 7.7C265.738 7.38 266.538 7.06 267.458 6.74C268.418 6.38 269.238 6.12 269.918 5.96C270.638 5.8 271.438 5.7 272.318 5.66C273.238 5.62 274.018 5.74 274.658 6.02C275.138 6.18 275.558 6.58 275.918 7.22C274.598 8.06 272.278 9.04 268.958 10.16C265.678 11.24 263.458 12.06 262.298 12.62C260.058 13.7 259.238 15.54 259.838 18.14C261.678 17.9 264.498 17.16 268.298 15.92C272.098 14.68 275.018 13.98 277.058 13.82ZM283.099 7.28C284.219 7.08 286.199 7.02 289.039 7.1C291.919 7.18 293.839 7.06 294.799 6.74C295.159 6.78 295.699 6.82 296.419 6.86C297.139 6.9 297.739 6.96 298.219 7.04C298.699 7.12 299.199 7.22 299.719 7.34C300.279 7.46 300.699 7.68 300.979 8C301.259 8.32 301.399 8.72 301.399 9.2C301.399 9.8 301.179 10.38 300.739 10.94C300.299 11.46 299.839 11.86 299.359 12.14C298.919 12.42 298.279 12.8 297.439 13.28C296.639 13.72 296.119 14.02 295.879 14.18C295.079 14.66 292.499 15.98 288.139 18.14C289.899 19.78 291.939 21.2 294.259 22.4C296.619 23.56 299.499 24.82 302.899 26.18C304.539 26.82 305.459 28.08 305.659 29.96C304.899 30.04 304.039 29.92 303.079 29.6C302.119 29.28 301.079 28.84 299.959 28.28C298.879 27.68 298.099 27.3 297.619 27.14C296.659 26.82 294.639 25.74 291.559 23.9C288.519 22.02 286.599 21.1 285.799 21.14C285.079 21.18 284.659 21.62 284.539 22.46C284.419 23.26 284.359 24.24 284.359 25.4C284.399 26.52 284.259 27.34 283.939 27.86C283.619 27.9 283.119 27.98 282.439 28.1C282.319 27.7 282.219 27.3 282.139 26.9C282.059 26.46 281.979 25.96 281.899 25.4C281.859 24.8 281.819 24.34 281.779 24.02C281.739 23.7 281.699 23.18 281.659 22.46C281.659 21.7 281.659 21.2 281.659 20.96C281.659 20.72 281.659 20.14 281.659 19.22C281.659 18.3 281.659 17.76 281.659 17.6C281.659 16.88 281.599 15.88 281.479 14.6C281.359 13.32 281.299 12.2 281.299 11.24C281.339 10.28 281.499 9.4 281.779 8.6C282.099 7.84 282.539 7.4 283.099 7.28ZM296.659 10.1C290.979 9.34 287.239 9.84 285.439 11.6C285.279 11.8 285.159 12.02 285.079 12.26C284.999 12.46 284.959 12.76 284.959 13.16C284.959 13.52 284.959 13.8 284.959 14C284.999 14.2 285.059 14.54 285.139 15.02C285.259 15.46 285.319 15.72 285.319 15.8C287.519 15.36 289.459 14.7 291.139 13.82C292.859 12.9 294.699 11.66 296.659 10.1Z" fill="white"/>
</svg>
