<svg width="23" height="27" viewBox="0 0 23 27" fill="none" xmlns="http://www.w3.org/2000/svg">
<path d="M4.92857 0C2.20759 0 0 2.26758 0 5.0625V21.9375C0 24.7324 2.20759 27 4.92857 27H19.7143H21.3571C22.2658 27 23 26.2459 23 25.3125C23 24.3791 22.2658 23.625 21.3571 23.625V20.25C22.2658 20.25 23 19.4959 23 18.5625V1.6875C23 0.754102 22.2658 0 21.3571 0H19.7143H4.92857ZM4.92857 20.25H18.0714V23.625H4.92857C4.01987 23.625 3.28571 22.8709 3.28571 21.9375C3.28571 21.0041 4.01987 20.25 4.92857 20.25ZM6.57143 7.59375C6.57143 7.12969 6.94107 6.75 7.39286 6.75H17.25C17.7018 6.75 18.0714 7.12969 18.0714 7.59375C18.0714 8.05781 17.7018 8.4375 17.25 8.4375H7.39286C6.94107 8.4375 6.57143 8.05781 6.57143 7.59375ZM7.39286 10.125H17.25C17.7018 10.125 18.0714 10.5047 18.0714 10.9688C18.0714 11.4328 17.7018 11.8125 17.25 11.8125H7.39286C6.94107 11.8125 6.57143 11.4328 6.57143 10.9688C6.57143 10.5047 6.94107 10.125 7.39286 10.125Z" fill="#67E4FF"/>
</svg>
