<?xml version="1.0" standalone="no"?>
<!DOCTYPE svg PUBLIC "-//W3C//DTD SVG 20010904//EN"
 "http://www.w3.org/TR/2001/REC-SVG-20010904/DTD/svg10.dtd">
<svg version="1.0" xmlns="http://www.w3.org/2000/svg"
  viewBox="0 0 29.000000 34.000000"
 preserveAspectRatio="xMidYMid meet">

<g transform="translate(0.000000,34.000000) scale(0.100000,-0.100000)"
fill="#0078FF" stroke="none">
<path d="M62 269 c-43 -13 -48 -28 -28 -86 14 -42 69 -113 87 -113 11 0 -2 49
-17 61 -16 13 -19 39 -5 39 5 0 11 8 13 18 4 15 0 17 -24 14 -25 -4 -29 -1
-26 14 2 10 16 21 34 26 39 10 55 38 21 37 -12 0 -37 -5 -55 -10z"/>
<path d="M157 265 c-5 -10 2 -17 21 -21 15 -4 30 -8 34 -10 12 -7 -15 -73 -44
-104 -20 -22 -26 -36 -20 -47 19 -34 102 83 102 145 0 24 -5 31 -27 36 -16 4
-35 9 -44 12 -9 2 -19 -2 -22 -11z"/>
</g>
</svg>
