<svg width="30" height="27" viewBox="0 0 30 27" fill="none" xmlns="http://www.w3.org/2000/svg">
<path d="M6.71022 0.328658C6.32218 0.423477 5.95139 0.535537 5.60072 0.664837C3.70363 1.3688 2.37567 2.5756 1.49324 4.01226C0.970102 4.86851 0.605057 5.80234 0.369358 6.75341L7.19887 13.5804C7.58691 13.4856 7.9577 13.3736 8.30837 13.2443C10.2055 12.5403 11.5334 11.3335 12.4159 9.89683C12.9419 9.04058 13.304 8.10675 13.5397 7.15855L6.71022 0.328658ZM13.83 5.49777C14.0054 3.86572 13.8703 2.2739 13.6087 1.00389C13.5311 0.63323 13.235 0.345898 12.8585 0.282684C11.1856 0.00397189 9.69957 -0.0621146 8.38598 0.0556917L13.83 5.49777ZM5.52023 13.8505L0.0790468 8.41132C-0.0962899 10.0434 0.0388056 11.6352 0.300373 12.9052C0.377982 13.2759 0.674042 13.5632 1.05058 13.6264C2.72347 13.9051 4.20952 13.9712 5.52311 13.8534L5.52023 13.8505ZM7.08964 4.3312C7.26785 4.15305 7.56104 4.15305 7.73925 4.3312L9.57885 6.17013C9.75706 6.34827 9.75706 6.64135 9.57885 6.8195C9.40064 6.99765 9.10745 6.99765 8.92924 6.8195L7.08964 4.98057C6.91143 4.80243 6.91143 4.50935 7.08964 4.3312ZM5.70994 5.7104C5.88815 5.53225 6.18134 5.53225 6.35955 5.7104L8.19915 7.54932C8.37736 7.72747 8.37736 8.02055 8.19915 8.1987C8.02094 8.37684 7.72775 8.37684 7.54954 8.1987L5.70994 6.35977C5.53173 6.18162 5.53173 5.88854 5.70994 5.7104ZM4.33024 7.08959C4.50845 6.91145 4.80164 6.91145 4.97985 7.08959L6.81945 8.92852C6.99766 9.10667 6.99766 9.39974 6.81945 9.57789C6.64124 9.75604 6.34805 9.75604 6.16984 9.57789L4.33024 7.73896C4.15203 7.56082 4.15203 7.26774 4.33024 7.08959Z" fill="white"/>
<path d="M18.5779 2.45448L20.7563 4.63289C21.3367 3.92976 21.6818 3.02721 21.6818 2.04539C21.6818 1.66954 21.6307 1.30647 21.5361 0.961297C20.4188 1.20164 19.4063 1.72579 18.5779 2.45448ZM18 3.03232C17.2713 3.86073 16.7472 4.87323 16.5068 5.99056C16.852 6.08516 17.2151 6.1363 17.5909 6.1363C18.5727 6.1363 19.4753 5.79113 20.181 5.21329L18 3.03232ZM22.9091 0.818115C22.7225 0.818115 22.5358 0.825786 22.3517 0.841127C22.4489 1.22721 22.5 1.63118 22.5 2.04539C22.5 3.25476 22.0628 4.35931 21.3392 5.21584L22.9091 6.78573L27.2404 2.45448C26.0847 1.43687 24.5685 0.818115 22.9091 0.818115ZM17.5909 6.95448C17.1767 6.95448 16.7727 6.90334 16.3867 6.80618C16.3713 6.99027 16.3636 7.17692 16.3636 7.36357C16.3636 9.02294 16.9824 10.5391 18 11.6948L22.3313 7.36357L20.7614 5.79368C19.9048 6.51726 18.8003 6.95448 17.5909 6.95448ZM29.4315 7.92096C29.4469 7.73687 29.4546 7.55022 29.4546 7.36357C29.4546 5.70419 28.8358 4.188 27.8182 3.03232L23.4869 7.36357L25.0568 8.93346C25.9108 8.20988 27.0179 7.77266 28.2273 7.77266C28.6415 7.77266 29.0455 7.8238 29.4315 7.92096ZM29.3114 8.73658C28.9662 8.64198 28.6031 8.59084 28.2273 8.59084C27.2455 8.59084 26.3429 8.93601 25.6372 9.51385L27.8182 11.6948C28.5469 10.869 29.0736 9.85647 29.3114 8.73658ZM25.0594 10.0917C24.4815 10.7974 24.1364 11.6999 24.1364 12.6818C24.1364 13.0576 24.1875 13.4207 24.2821 13.7658C25.3994 13.5255 26.4119 13.0014 27.2404 12.2727L25.0619 10.0943L25.0594 10.0917ZM24.479 9.5113L22.9091 7.94141L18.5779 12.2727C19.731 13.2903 21.2472 13.909 22.9091 13.909C23.0957 13.909 23.2824 13.9014 23.4665 13.886C23.3693 13.4999 23.3182 13.096 23.3182 12.6818C23.3182 11.4724 23.7554 10.3678 24.479 9.5113Z" fill="white"/>
<path d="M8.96677 19.6208C8.84405 19.631 8.71876 19.6361 8.59092 19.6361C8.19206 19.6361 7.80342 19.585 7.43524 19.4852C7.85456 16.646 10.102 14.3977 12.9401 13.9782C13.0398 14.3466 13.0909 14.7354 13.0909 15.1344C13.0909 15.2597 13.0858 15.385 13.0756 15.5104C13.0577 15.7355 13.2239 15.9324 13.4489 15.9529C13.6739 15.9733 13.8707 15.8045 13.8912 15.5794C13.904 15.4336 13.9091 15.2853 13.9091 15.1369C13.9091 14.7149 13.8605 14.3031 13.7659 13.9117C13.8119 13.9117 13.8605 13.9092 13.9091 13.9092C17.5244 13.9066 20.4546 16.8379 20.4546 20.4546C20.4546 20.5032 20.4546 20.5493 20.452 20.5979C20.0582 20.5058 19.6492 20.4546 19.2273 20.4546C19.079 20.4546 18.9307 20.4598 18.785 20.4725C18.56 20.4904 18.3912 20.69 18.4117 20.915C18.4321 21.1401 18.629 21.3089 18.854 21.2885C18.9767 21.2783 19.102 21.2731 19.2298 21.2731C19.6287 21.2731 20.0173 21.3243 20.3855 21.424C19.9636 24.2632 17.7162 26.5115 14.8781 26.931C14.7784 26.5627 14.7273 26.1739 14.7273 25.7749C14.7273 25.6496 14.7324 25.5242 14.7426 25.3989C14.7605 25.1738 14.5943 24.9769 14.3693 24.9564C14.1443 24.9359 13.9475 25.1047 13.927 25.3298C13.9142 25.4756 13.9091 25.624 13.9091 25.7723C13.9091 26.1944 13.9577 26.6062 14.0523 26.9975C14.0063 26.9975 13.9577 27.0001 13.9091 27.0001C10.2938 27.0026 7.36365 24.0714 7.36365 20.4546C7.36365 20.406 7.36365 20.36 7.3662 20.3114C7.7574 20.406 8.16905 20.4546 8.59092 20.4546C8.73922 20.4546 8.88751 20.4495 9.03325 20.4367C9.25825 20.4188 9.427 20.2193 9.40655 19.9942C9.38609 19.7691 9.18922 19.6003 8.96422 19.6208H8.96677ZM10.4651 19.2269C10.2605 19.3215 10.1685 19.5645 10.2631 19.7691C10.3577 19.9738 10.6006 20.0658 10.8051 19.9712C11.9608 19.4392 12.894 18.5081 13.4259 17.3494C13.5205 17.1448 13.431 16.9018 13.2239 16.8072C13.0168 16.7125 12.7764 16.8021 12.6818 17.0093C12.2318 17.9889 11.4418 18.7793 10.4651 19.2269ZM17.5526 21.1376C17.458 20.9329 17.2151 20.8409 17.0105 20.9355C15.8548 21.4675 14.9216 22.3986 14.3898 23.5573C14.2952 23.7619 14.3847 24.0049 14.5918 24.0995C14.7989 24.1942 15.0392 24.1046 15.1338 23.8975C15.5838 22.9178 16.3739 22.1274 17.3506 21.6798C17.5551 21.5852 17.6472 21.3422 17.5526 21.1376Z" fill="white"/>
</svg>
