<svg width="155" height="29" viewBox="0 0 155 29" fill="none" xmlns="http://www.w3.org/2000/svg">
<path d="M11.7391 18.06C11.6591 16.7 12.1591 15.4 13.2391 14.16C14.3191 12.92 15.6391 11.98 17.1991 11.34C18.7991 10.66 20.2991 10.32 21.6991 10.32C22.3791 10.32 22.8391 10.52 23.0791 10.92C23.3191 11.32 23.4591 11.92 23.4991 12.72C23.5391 13.32 23.4791 14.26 23.3191 15.54C23.1991 16.78 23.1391 17.46 23.1391 17.58C23.1791 17.94 23.2791 18.5 23.4391 19.26C23.5991 19.98 23.7191 20.62 23.7991 21.18C23.8791 21.7 23.8991 22.26 23.8591 22.86C23.8591 23.42 23.6791 23.86 23.3191 24.18C22.9591 24.5 22.4191 24.66 21.6991 24.66C19.7391 24.66 16.9991 25.26 13.4791 26.46C9.95906 27.62 7.23906 28.2 5.31906 28.2C2.07906 28.2 0.439063 26.56 0.399063 23.28C0.359063 21.2 0.959063 19.02 2.19906 16.74C3.43906 14.42 4.99906 12.34 6.87906 10.5C8.75906 8.62 10.7591 6.96 12.8791 5.52C15.0391 4.04 17.0191 2.98 18.8191 2.34C19.5391 2.14 20.2791 2.14 21.0391 2.34C21.8391 2.5 22.3791 2.82 22.6591 3.3C22.9391 3.74 22.8391 4.28 22.3591 4.92C22.0791 5.2 21.5391 5.46 20.7391 5.7C17.7391 6.62 14.8991 8.22 12.2191 10.5C9.57906 12.74 7.23906 15.36 5.19906 18.36C3.83906 20.36 3.15906 21.94 3.15906 23.1C3.15906 23.98 3.55906 24.54 4.35906 24.78C5.19906 24.98 6.07906 24.94 6.99906 24.66C8.35906 24.38 9.49906 24.08 10.4191 23.76C11.3791 23.44 12.5991 22.98 14.0791 22.38C15.5591 21.78 16.8391 21.28 17.9191 20.88C19.0391 20.48 19.7391 19.68 20.0191 18.48C20.3391 17.28 20.2591 16.02 19.7791 14.7C19.5791 14.74 18.3791 15.34 16.1791 16.5C14.0191 17.66 12.5391 18.18 11.7391 18.06ZM38.0908 27C35.9308 27.8 34.0508 27.94 32.4508 27.42C30.8508 26.86 29.5908 25.78 28.6708 24.18C27.7908 22.54 27.4108 20.64 27.5308 18.48C27.6108 16.04 27.8108 14.18 28.1308 12.9C28.4908 11.58 29.2108 10.1 30.2908 8.46C30.8508 7.62 31.2108 7.08 31.3708 6.84C31.5708 6.56 31.9108 6.16 32.3908 5.64C32.8708 5.08 33.2708 4.7 33.5908 4.5C33.9108 4.3 34.3308 4.1 34.8508 3.9C35.4108 3.7 36.0308 3.56 36.7108 3.48C37.2708 3.44 37.9708 3.6 38.8108 3.96C39.6508 4.28 40.5908 4.6 41.6308 4.92C42.7108 5.2 43.7708 5.26 44.8108 5.1C46.9308 4.78 48.4908 5.04 49.4908 5.88C50.4908 6.68 50.9308 8.1 50.8108 10.14C50.6508 14.06 49.3508 17.48 46.9108 20.4C44.5108 23.32 41.5708 25.52 38.0908 27ZM46.9108 7.2C45.9908 7.24 44.9308 7.58 43.7308 8.22C42.5708 8.86 41.3308 9.64 40.0108 10.56C38.7308 11.44 37.7308 12.04 37.0108 12.36C36.9708 11.84 37.1708 11.22 37.6108 10.5C38.0508 9.78 38.5108 9.1 38.9908 8.46C39.5108 7.82 39.7908 7.38 39.8308 7.14C38.6708 6.7 37.5708 6.62 36.5308 6.9C35.5308 7.18 34.5908 7.74 33.7108 8.58C32.8308 9.42 32.0708 10.38 31.4308 11.46C30.7908 12.54 30.2908 13.66 29.9308 14.82C29.5708 15.98 29.3908 17.06 29.3908 18.06C29.3908 19.1 29.5308 20.14 29.8108 21.18C30.1308 22.18 30.5708 23.08 31.1308 23.88C31.6908 24.64 32.3908 25.18 33.2308 25.5C34.1108 25.78 35.1308 25.74 36.2908 25.38C39.4508 24.34 42.2908 22.5 44.8108 19.86C47.3708 17.22 48.7108 14.24 48.8308 10.92C48.8308 10.12 48.8108 9.48 48.7708 9C48.7308 8.52 48.5508 8.1 48.2308 7.74C47.9508 7.38 47.5108 7.2 46.9108 7.2ZM68.4517 19.74C67.3717 20.06 66.4317 20.26 65.6317 20.34C64.8717 20.38 63.9317 20.36 62.8117 20.28C61.6917 20.16 60.7717 20.1 60.0517 20.1C58.2117 20.1 57.0517 20.68 56.5717 21.84L55.6717 25.92C55.3917 27.36 54.5917 28.36 53.2717 28.92C52.9917 27.88 52.8517 27.02 52.8517 26.34C52.8517 25.62 52.9717 24.84 53.2117 24C53.4917 23.16 53.7717 22.44 54.0517 21.84C54.3717 21.2 54.6917 20.44 55.0117 19.56C55.3317 18.68 55.5317 17.86 55.6117 17.1C55.5717 16.74 55.7317 16.38 56.0917 16.02C56.4917 15.66 56.8917 15.36 57.2917 15.12C57.7317 14.88 57.9717 14.74 58.0117 14.7C58.8917 14.06 60.0517 12.64 61.4917 10.44C62.9717 8.2 63.6917 6.56 63.6517 5.52C63.6517 5.16 63.5517 4.7 63.3517 4.14C63.1517 3.58 63.0117 3.18 62.9317 2.94C62.8517 2.7 62.9517 2.34 63.2317 1.86C63.3917 1.58 64.0717 1.22 65.2717 0.78C66.5117 0.339998 67.4117 0.0799983 67.9717 -7.15256e-07C68.0117 0.319998 68.1117 1.4 68.2717 3.24C68.4317 5.08 68.6517 6.22 68.9317 6.66C69.8117 8.26 71.0917 10.72 72.7717 14.04C74.4517 17.36 76.0317 20.24 77.5117 22.68C78.7517 24.76 79.3717 26.52 79.3717 27.96C78.1717 27.76 77.1717 27.22 76.3717 26.34C75.9717 25.94 75.0517 24.28 73.6117 21.36C72.7317 19.52 71.0117 18.98 68.4517 19.74ZM62.2117 12.54C61.4117 13.54 61.0517 14.5 61.1317 15.42C61.2517 16.34 61.9517 16.9 63.2317 17.1C66.5517 17.58 69.2317 17.58 71.2717 17.1C70.7517 15.46 69.9317 13.76 68.8117 12C67.7317 10.24 66.6517 8.94 65.5717 8.1C65.2517 8.5 64.1317 9.98 62.2117 12.54ZM91.6291 2.34C92.8291 2.94 93.7491 3.3 94.3891 3.42C95.0691 3.5 96.2491 3.44 97.9291 3.24C99.0491 3.08 99.9091 3 100.509 3C101.109 3 101.709 3.16 102.309 3.48C102.789 3.72 103.029 4.3 103.029 5.22C101.869 5.22 99.8091 5.54 96.8491 6.18C96.2891 6.3 95.8291 6.56 95.4691 6.96C95.1491 7.36 94.9491 7.9 94.8691 8.58C94.8291 9.26 94.8091 9.9 94.8091 10.5C94.8091 11.1 94.8491 11.84 94.9291 12.72C95.0091 13.56 95.0491 14.2 95.0491 14.64C95.0491 15.8 94.9691 17.42 94.8091 19.5C94.6491 21.58 94.5691 23.18 94.5691 24.3C94.5691 26.14 94.4291 27.3 94.1491 27.78C93.9091 28.34 93.4491 28.64 92.7691 28.68C92.0891 28.72 91.5491 28.34 91.1491 27.54C90.7491 26.74 90.5891 25.94 90.6691 25.14C90.7091 24.74 90.8691 23.56 91.1491 21.6C91.4291 19.64 91.6291 18.02 91.7491 16.74C91.8691 15.42 91.9291 14.08 91.9291 12.72C91.9291 11.92 91.9091 11.26 91.8691 10.74C91.8291 10.18 91.7091 9.6 91.5091 9C91.3491 8.4 91.1291 7.92 90.8491 7.56C90.5691 7.2 90.1691 6.9 89.6491 6.66C89.1691 6.42 88.5891 6.3 87.9091 6.3C87.3891 6.3 86.4491 6.42 85.0891 6.66C83.7691 6.86 82.5891 6.96 81.5491 6.96C80.5491 6.92 79.7691 6.68 79.2091 6.24C78.4891 5.64 78.0491 4.66 77.8891 3.3C79.4891 2.94 81.0491 2.86 82.5691 3.06C84.0891 3.22 85.7491 3.3 87.5491 3.3C89.3491 3.26 90.7091 2.94 91.6291 2.34ZM112.132 26.58C111.252 26.86 110.432 26.84 109.672 26.52C108.952 26.2 108.532 25.74 108.412 25.14C108.292 24.54 108.512 23.92 109.072 23.28C109.552 22.76 110.252 22.44 111.172 22.32C111.652 22.24 113.292 22 116.092 21.6C118.892 21.16 121.052 20.76 122.572 20.4C123.212 20.24 124.132 19.92 125.332 19.44C126.532 18.92 127.492 18.64 128.212 18.6C128.852 18.52 129.412 18.74 129.892 19.26C130.372 19.74 130.632 20.26 130.672 20.82C130.672 21.14 130.532 21.44 130.252 21.72C129.972 21.96 129.552 22.14 128.992 22.26C123.392 23.3 117.772 24.74 112.132 26.58ZM128.752 11.82C129.432 11.78 130.032 11.92 130.552 12.24C131.072 12.56 131.332 12.98 131.332 13.5C131.332 14.38 130.652 14.94 129.292 15.18C128.892 15.22 128.252 15.32 127.372 15.48C126.492 15.6 125.932 15.68 125.692 15.72C125.452 15.76 125.012 15.84 124.372 15.96C123.772 16.08 123.252 16.22 122.812 16.38C122.372 16.5 121.792 16.66 121.072 16.86C120.352 17.06 119.552 17.3 118.672 17.58C116.352 18.3 114.792 18.92 113.992 19.44C112.272 20.56 111.412 22.18 111.412 24.3C111.412 26.26 111.292 27.64 111.052 28.44C109.772 28.24 108.972 27.48 108.652 26.16C108.252 24.48 107.792 23.34 107.272 22.74C107.192 22.66 107.032 22.52 106.792 22.32C106.592 22.12 106.472 22 106.432 21.96C106.392 21.92 106.292 21.82 106.132 21.66C106.012 21.5 105.952 21.4 105.952 21.36C105.952 21.28 105.912 21.18 105.832 21.06C105.752 20.94 105.732 20.86 105.772 20.82C105.812 20.74 105.832 20.64 105.832 20.52C105.872 20.4 105.912 20.3 105.952 20.22C106.032 20.1 106.112 19.98 106.192 19.86C106.312 19.7 106.452 19.54 106.612 19.38C106.692 19.26 106.832 19.1 107.032 18.9C107.232 18.7 107.352 18.58 107.392 18.54C107.432 18.46 107.512 18.36 107.632 18.24C107.752 18.08 107.812 17.94 107.812 17.82C107.852 17.7 107.912 17.54 107.992 17.34C108.072 17.14 108.152 16.9 108.232 16.62C108.672 14.74 108.272 13.78 107.032 13.74C106.232 13.7 105.652 13.32 105.292 12.6C104.932 11.88 105.072 11.28 105.712 10.8C106.272 10.4 106.712 10.04 107.032 9.72C107.352 9.4 107.652 8.94 107.932 8.34C108.252 7.74 108.432 7.06 108.472 6.3C108.592 4.54 109.132 3.4 110.092 2.88C110.172 2.96 110.272 3.06 110.392 3.18C110.552 3.26 110.652 3.34 110.692 3.42C110.772 3.5 110.872 3.6 110.992 3.72C111.112 3.8 111.192 3.9 111.232 4.02C111.312 4.14 111.392 4.3 111.472 4.5C111.552 4.7 111.632 4.92 111.712 5.16L112.492 7.56C112.972 7.4 113.632 7.14 114.472 6.78C115.352 6.38 116.112 6.02 116.752 5.7C117.432 5.38 118.232 5.06 119.152 4.74C120.112 4.38 120.932 4.12 121.612 3.96C122.332 3.8 123.132 3.7 124.012 3.66C124.932 3.62 125.712 3.74 126.352 4.02C126.832 4.18 127.252 4.58 127.612 5.22C126.292 6.06 123.972 7.04 120.652 8.16C117.372 9.24 115.152 10.06 113.992 10.62C111.752 11.7 110.932 13.54 111.532 16.14C113.372 15.9 116.192 15.16 119.992 13.92C123.792 12.68 126.712 11.98 128.752 11.82ZM137.613 27.54C137.173 27.66 136.773 27.74 136.413 27.78C136.053 27.78 135.753 27.7 135.513 27.54C135.313 27.38 135.133 27.2 134.973 27C134.853 26.76 134.753 26.48 134.673 26.16C134.633 25.8 134.593 25.44 134.553 25.08C134.513 24.72 134.513 24.32 134.553 23.88C134.593 23.4 134.613 22.98 134.613 22.62C134.653 22.26 134.693 21.88 134.733 21.48C134.773 21.04 134.793 20.68 134.793 20.4C134.873 18.52 134.733 16.94 134.373 15.66C134.013 14.38 133.453 12.96 132.693 11.4C132.573 10.92 132.513 10.56 132.513 10.32C132.553 10.04 132.613 9.66 132.693 9.18C132.813 8.7 132.873 8.34 132.873 8.1C132.953 5.74 133.413 4.5 134.253 4.38C134.693 4.38 135.333 4.8 136.173 5.64C137.013 6.48 137.693 6.84 138.213 6.72C138.293 6.72 138.973 6.6 140.253 6.36C141.533 6.12 142.393 5.98 142.833 5.94C143.313 5.9 144.053 5.84 145.053 5.76C146.053 5.68 146.933 5.68 147.693 5.76C148.493 5.84 149.253 5.98 149.973 6.18C151.173 6.54 152.173 7.38 152.973 8.7C153.813 9.98 154.253 11.36 154.293 12.84C154.373 14.32 154.033 15.74 153.273 17.1C151.873 19.1 149.693 21.04 146.733 22.92C143.813 24.8 140.773 26.34 137.613 27.54ZM148.113 9C146.913 8.72 145.633 8.64 144.273 8.76C142.953 8.88 141.753 9.12 140.673 9.48C139.593 9.8 138.713 10.38 138.033 11.22C137.353 12.02 137.053 13.02 137.133 14.22C137.173 14.5 137.213 15.06 137.253 15.9C137.333 16.7 137.393 17.28 137.433 17.64C137.473 17.96 137.513 18.48 137.553 19.2C137.633 19.92 137.713 20.5 137.793 20.94C137.913 21.34 138.033 21.8 138.153 22.32C138.273 22.84 138.413 23.3 138.573 23.7C141.853 22.14 145.493 19.62 149.493 16.14C150.293 15.46 150.793 14.6 150.993 13.56C151.193 12.48 151.033 11.5 150.513 10.62C149.993 9.74 149.193 9.2 148.113 9Z" fill="white"/>
</svg>
