<svg width="272" height="33" viewBox="0 0 272 33" fill="none" xmlns="http://www.w3.org/2000/svg">
<path d="M12.0613 20.06C11.9813 18.7 12.4813 17.4 13.5613 16.16C14.6413 14.92 15.9613 13.98 17.5213 13.34C19.1213 12.66 20.6213 12.32 22.0213 12.32C22.7013 12.32 23.1613 12.52 23.4013 12.92C23.6413 13.32 23.7813 13.92 23.8213 14.72C23.8613 15.32 23.8013 16.26 23.6413 17.54C23.5213 18.78 23.4613 19.46 23.4613 19.58C23.5013 19.94 23.6013 20.5 23.7613 21.26C23.9213 21.98 24.0413 22.62 24.1213 23.18C24.2013 23.7 24.2213 24.26 24.1813 24.86C24.1813 25.42 24.0013 25.86 23.6413 26.18C23.2813 26.5 22.7413 26.66 22.0213 26.66C20.0613 26.66 17.3213 27.26 13.8013 28.46C10.2813 29.62 7.56133 30.2 5.64133 30.2C2.40133 30.2 0.761328 28.56 0.721328 25.28C0.681328 23.2 1.28133 21.02 2.52133 18.74C3.76133 16.42 5.32133 14.34 7.20133 12.5C9.08133 10.62 11.0813 8.96 13.2013 7.52C15.3613 6.04 17.3413 4.98 19.1413 4.34C19.8613 4.14 20.6013 4.14 21.3613 4.34C22.1613 4.5 22.7013 4.82 22.9813 5.3C23.2613 5.74 23.1613 6.28 22.6813 6.92C22.4013 7.2 21.8613 7.46 21.0613 7.7C18.0613 8.62 15.2213 10.22 12.5413 12.5C9.90133 14.74 7.56133 17.36 5.52133 20.36C4.16133 22.36 3.48133 23.94 3.48133 25.1C3.48133 25.98 3.88133 26.54 4.68133 26.78C5.52133 26.98 6.40133 26.94 7.32133 26.66C8.68133 26.38 9.82133 26.08 10.7413 25.76C11.7013 25.44 12.9213 24.98 14.4013 24.38C15.8813 23.78 17.1613 23.28 18.2413 22.88C19.3613 22.48 20.0613 21.68 20.3413 20.48C20.6613 19.28 20.5813 18.02 20.1013 16.7C19.9013 16.74 18.7013 17.34 16.5013 18.5C14.3413 19.66 12.8613 20.18 12.0613 20.06ZM38.413 29C36.253 29.8 34.373 29.94 32.773 29.42C31.173 28.86 29.913 27.78 28.993 26.18C28.113 24.54 27.733 22.64 27.853 20.48C27.933 18.04 28.133 16.18 28.453 14.9C28.813 13.58 29.533 12.1 30.613 10.46C31.173 9.62 31.533 9.08 31.693 8.84C31.893 8.56 32.233 8.16 32.713 7.64C33.193 7.08 33.593 6.7 33.913 6.5C34.233 6.3 34.653 6.1 35.173 5.9C35.733 5.7 36.353 5.56 37.033 5.48C37.593 5.44 38.293 5.6 39.133 5.96C39.973 6.28 40.913 6.6 41.953 6.92C43.033 7.2 44.093 7.26 45.133 7.1C47.253 6.78 48.813 7.04 49.813 7.88C50.813 8.68 51.253 10.1 51.133 12.14C50.973 16.06 49.673 19.48 47.233 22.4C44.833 25.32 41.893 27.52 38.413 29ZM47.233 9.2C46.313 9.24 45.253 9.58 44.053 10.22C42.893 10.86 41.653 11.64 40.333 12.56C39.053 13.44 38.053 14.04 37.333 14.36C37.293 13.84 37.493 13.22 37.933 12.5C38.373 11.78 38.833 11.1 39.313 10.46C39.833 9.82 40.113 9.38 40.153 9.14C38.993 8.7 37.893 8.62 36.853 8.9C35.853 9.18 34.913 9.74 34.033 10.58C33.153 11.42 32.393 12.38 31.753 13.46C31.113 14.54 30.613 15.66 30.253 16.82C29.893 17.98 29.713 19.06 29.713 20.06C29.713 21.1 29.853 22.14 30.133 23.18C30.453 24.18 30.893 25.08 31.453 25.88C32.013 26.64 32.713 27.18 33.553 27.5C34.433 27.78 35.453 27.74 36.613 27.38C39.773 26.34 42.613 24.5 45.133 21.86C47.693 19.22 49.033 16.24 49.153 12.92C49.153 12.12 49.133 11.48 49.093 11C49.053 10.52 48.873 10.1 48.553 9.74C48.273 9.38 47.833 9.2 47.233 9.2ZM85.094 29.54C85.054 24.02 84.354 17.04 82.994 8.6C82.954 8.28 82.954 8 82.994 7.76C83.074 7.48 83.174 7.26 83.294 7.1C83.414 6.9 83.594 6.72 83.834 6.56C84.114 6.4 84.334 6.28 84.494 6.2C84.694 6.12 84.974 6.04 85.334 5.96C85.694 5.84 85.954 5.78 86.114 5.78C86.274 5.74 86.534 5.7 86.894 5.66C87.294 5.58 87.514 5.54 87.554 5.54C91.154 4.98 94.614 5.2 97.934 6.2C101.254 7.16 102.174 8.92 100.694 11.48C99.734 13.24 98.394 14.54 96.674 15.38C94.954 16.22 92.514 16.98 89.354 17.66C88.434 17.82 87.794 18.22 87.434 18.86C87.114 19.46 86.914 20.36 86.834 21.56C86.834 22.16 86.874 22.9 86.954 23.78C87.074 24.62 87.174 25.34 87.254 25.94C87.334 26.5 87.354 27.06 87.314 27.62C87.274 28.18 87.074 28.62 86.714 28.94C86.354 29.26 85.814 29.46 85.094 29.54ZM97.814 9.8C97.614 8.88 96.914 8.22 95.714 7.82C94.514 7.42 93.214 7.32 91.814 7.52C90.414 7.68 89.314 8.02 88.514 8.54C87.194 9.46 86.534 10.6 86.534 11.96C86.534 12.52 86.594 13 86.714 13.4C86.874 13.76 87.014 14.06 87.134 14.3C87.294 14.5 87.554 14.66 87.914 14.78C88.314 14.86 88.614 14.92 88.814 14.96C89.054 14.96 89.434 14.92 89.954 14.84C90.474 14.76 90.834 14.7 91.034 14.66C91.234 14.62 91.614 14.52 92.174 14.36C93.174 14.12 94.394 13.48 95.834 12.44C97.274 11.4 97.934 10.52 97.814 9.8ZM104.236 7.28C105.356 7.08 107.336 7.02 110.176 7.1C113.056 7.18 114.976 7.06 115.936 6.74C116.296 6.78 116.836 6.82 117.556 6.86C118.276 6.9 118.876 6.96 119.356 7.04C119.836 7.12 120.336 7.22 120.856 7.34C121.416 7.46 121.836 7.68 122.116 8C122.396 8.32 122.536 8.72 122.536 9.2C122.536 9.8 122.316 10.38 121.876 10.94C121.436 11.46 120.976 11.86 120.496 12.14C120.056 12.42 119.416 12.8 118.576 13.28C117.776 13.72 117.256 14.02 117.016 14.18C116.216 14.66 113.636 15.98 109.276 18.14C111.036 19.78 113.076 21.2 115.396 22.4C117.756 23.56 120.636 24.82 124.036 26.18C125.676 26.82 126.596 28.08 126.796 29.96C126.036 30.04 125.176 29.92 124.216 29.6C123.256 29.28 122.216 28.84 121.096 28.28C120.016 27.68 119.236 27.3 118.756 27.14C117.796 26.82 115.776 25.74 112.696 23.9C109.656 22.02 107.736 21.1 106.936 21.14C106.216 21.18 105.796 21.62 105.676 22.46C105.556 23.26 105.496 24.24 105.496 25.4C105.536 26.52 105.396 27.34 105.076 27.86C104.756 27.9 104.256 27.98 103.576 28.1C103.456 27.7 103.356 27.3 103.276 26.9C103.196 26.46 103.116 25.96 103.036 25.4C102.996 24.8 102.956 24.34 102.916 24.02C102.876 23.7 102.836 23.18 102.796 22.46C102.796 21.7 102.796 21.2 102.796 20.96C102.796 20.72 102.796 20.14 102.796 19.22C102.796 18.3 102.796 17.76 102.796 17.6C102.796 16.88 102.736 15.88 102.616 14.6C102.496 13.32 102.436 12.2 102.436 11.24C102.476 10.28 102.636 9.4 102.916 8.6C103.236 7.84 103.676 7.4 104.236 7.28ZM117.796 10.1C112.116 9.34 108.376 9.84 106.576 11.6C106.416 11.8 106.296 12.02 106.216 12.26C106.136 12.46 106.096 12.76 106.096 13.16C106.096 13.52 106.096 13.8 106.096 14C106.136 14.2 106.196 14.54 106.276 15.02C106.396 15.46 106.456 15.72 106.456 15.8C108.656 15.36 110.596 14.7 112.276 13.82C113.996 12.9 115.836 11.66 117.796 10.1ZM137.415 28.58C136.535 28.86 135.715 28.84 134.955 28.52C134.235 28.2 133.815 27.74 133.695 27.14C133.575 26.54 133.795 25.92 134.355 25.28C134.835 24.76 135.535 24.44 136.455 24.32C136.935 24.24 138.575 24 141.375 23.6C144.175 23.16 146.335 22.76 147.855 22.4C148.495 22.24 149.415 21.92 150.615 21.44C151.815 20.92 152.775 20.64 153.495 20.6C154.135 20.52 154.695 20.74 155.175 21.26C155.655 21.74 155.915 22.26 155.955 22.82C155.955 23.14 155.815 23.44 155.535 23.72C155.255 23.96 154.835 24.14 154.275 24.26C148.675 25.3 143.055 26.74 137.415 28.58ZM154.035 13.82C154.715 13.78 155.315 13.92 155.835 14.24C156.355 14.56 156.615 14.98 156.615 15.5C156.615 16.38 155.935 16.94 154.575 17.18C154.175 17.22 153.535 17.32 152.655 17.48C151.775 17.6 151.215 17.68 150.975 17.72C150.735 17.76 150.295 17.84 149.655 17.96C149.055 18.08 148.535 18.22 148.095 18.38C147.655 18.5 147.075 18.66 146.355 18.86C145.635 19.06 144.835 19.3 143.955 19.58C141.635 20.3 140.075 20.92 139.275 21.44C137.555 22.56 136.695 24.18 136.695 26.3C136.695 28.26 136.575 29.64 136.335 30.44C135.055 30.24 134.255 29.48 133.935 28.16C133.535 26.48 133.075 25.34 132.555 24.74C132.475 24.66 132.315 24.52 132.075 24.32C131.875 24.12 131.755 24 131.715 23.96C131.675 23.92 131.575 23.82 131.415 23.66C131.295 23.5 131.235 23.4 131.235 23.36C131.235 23.28 131.195 23.18 131.115 23.06C131.035 22.94 131.015 22.86 131.055 22.82C131.095 22.74 131.115 22.64 131.115 22.52C131.155 22.4 131.195 22.3 131.235 22.22C131.315 22.1 131.395 21.98 131.475 21.86C131.595 21.7 131.735 21.54 131.895 21.38C131.975 21.26 132.115 21.1 132.315 20.9C132.515 20.7 132.635 20.58 132.675 20.54C132.715 20.46 132.795 20.36 132.915 20.24C133.035 20.08 133.095 19.94 133.095 19.82C133.135 19.7 133.195 19.54 133.275 19.34C133.355 19.14 133.435 18.9 133.515 18.62C133.955 16.74 133.555 15.78 132.315 15.74C131.515 15.7 130.935 15.32 130.575 14.6C130.215 13.88 130.355 13.28 130.995 12.8C131.555 12.4 131.995 12.04 132.315 11.72C132.635 11.4 132.935 10.94 133.215 10.34C133.535 9.74 133.715 9.06 133.755 8.3C133.875 6.54 134.415 5.4 135.375 4.88C135.455 4.96 135.555 5.06 135.675 5.18C135.835 5.26 135.935 5.34 135.975 5.42C136.055 5.5 136.155 5.6 136.275 5.72C136.395 5.8 136.475 5.9 136.515 6.02C136.595 6.14 136.675 6.3 136.755 6.5C136.835 6.7 136.915 6.92 136.995 7.16L137.775 9.56C138.255 9.4 138.915 9.14 139.755 8.78C140.635 8.38 141.395 8.02 142.035 7.7C142.715 7.38 143.515 7.06 144.435 6.74C145.395 6.38 146.215 6.12 146.895 5.96C147.615 5.8 148.415 5.7 149.295 5.66C150.215 5.62 150.995 5.74 151.635 6.02C152.115 6.18 152.535 6.58 152.895 7.22C151.575 8.06 149.255 9.04 145.935 10.16C142.655 11.24 140.435 12.06 139.275 12.62C137.035 13.7 136.215 15.54 136.815 18.14C138.655 17.9 141.475 17.16 145.275 15.92C149.075 14.68 151.995 13.98 154.035 13.82ZM184.076 2.48V1.52C184.556 0.799998 185.076 0.439998 185.636 0.439998C186.196 0.559999 186.656 0.879999 187.016 1.4C187.376 1.88 187.596 2.46 187.676 3.14C187.756 3.78 187.816 4.5 187.856 5.3C187.896 6.1 187.876 6.92 187.796 7.76C187.756 8.56 187.756 9.34 187.796 10.1C187.716 10.7 188.016 13.42 188.696 18.26C189.376 23.1 189.716 26.22 189.716 27.62C189.716 28.26 189.556 28.78 189.236 29.18C188.956 29.58 188.556 29.8 188.036 29.84C186.996 29.84 186.296 29.12 185.936 27.68C185.736 26.92 185.556 24.68 185.396 20.96C185.236 17.2 185.136 15.12 185.096 14.72C184.736 12.12 184.216 10.1 183.536 8.66C180.176 12.26 177.616 16.38 175.856 21.02C175.776 21.18 175.636 21.74 175.436 22.7C175.236 23.62 174.976 24.32 174.656 24.8C174.376 25.24 173.936 25.44 173.336 25.4C172.896 25.56 171.996 25.1 170.636 24.02C169.316 22.94 168.036 21.84 166.796 20.72C165.556 19.56 164.816 19.02 164.576 19.1L163.556 22.94C163.156 24.34 162.556 25.42 161.756 26.18C161.356 25.42 161.136 24.54 161.096 23.54C161.056 22.54 161.136 21.24 161.336 19.64C161.576 18 161.716 17.02 161.756 16.7C161.796 15.94 161.236 14.72 160.076 13.04C158.956 11.32 158.416 10.16 158.456 9.56C158.696 9.56 159.216 9.5 160.016 9.38C160.816 9.22 161.236 9.14 161.276 9.14C161.196 7.94 161.176 7.22 161.216 6.98C161.256 6.7 161.436 6 161.756 4.88C162.796 5.56 163.456 6.28 163.736 7.04C164.016 7.76 164.276 9.24 164.516 11.48C164.756 13.4 165.536 15.18 166.856 16.82C168.216 18.46 169.836 19.86 171.716 21.02L184.076 2.48ZM201.066 6.74C200.346 7.06 199.626 7.34 198.906 7.58C198.226 7.78 197.486 7.92 196.686 8C195.926 8.08 195.266 7.96 194.706 7.64C194.146 7.28 193.786 6.7 193.626 5.9C193.546 5.42 193.886 4.94 194.646 4.46C195.406 3.98 196.266 3.6 197.226 3.32C198.226 3 199.026 2.88 199.626 2.96C200.106 3 200.646 2.84 201.246 2.48C201.886 2.12 202.446 1.96 202.926 2C204.006 2.32 204.766 2.54 205.206 2.66C205.686 2.74 206.306 2.84 207.066 2.96C207.866 3.04 208.806 3.08 209.886 3.08C211.126 3.08 212.006 3.28 212.526 3.68C213.046 4.04 213.486 4.76 213.846 5.84C213.566 5.88 211.966 5.92 209.046 5.96C206.246 6.04 204.846 6.94 204.846 8.66C204.886 10.06 204.806 12.98 204.606 17.42C204.446 21.86 204.366 24.16 204.366 24.32C204.366 25.12 204.566 25.76 204.966 26.24C205.366 26.68 205.946 26.96 206.706 27.08C207.506 27.16 208.266 27.18 208.986 27.14C209.706 27.1 210.566 27.02 211.566 26.9C212.606 26.74 213.366 26.66 213.846 26.66C213.286 27.38 212.506 27.98 211.506 28.46C210.506 28.9 209.546 29.22 208.626 29.42C207.746 29.62 206.546 29.86 205.026 30.14C203.506 30.42 202.346 30.66 201.546 30.86C198.466 31.62 196.146 32.16 194.586 32.48C194.066 32.56 193.666 32.38 193.386 31.94C193.106 31.5 192.946 30.98 192.906 30.38C192.906 29.78 193.266 29.36 193.986 29.12C194.706 28.88 195.646 28.76 196.806 28.76C198.006 28.72 198.786 28.66 199.146 28.58C200.506 28.22 201.186 26.86 201.186 24.5C201.186 24.42 201.186 24.3 201.186 24.14C201.186 23.98 201.186 23.8 201.186 23.6C201.186 23.4 201.166 23.2 201.126 23C201.126 22.8 201.106 22.6 201.066 22.4C201.066 22.16 201.066 21.96 201.066 21.8C201.066 21.6 201.046 21.42 201.006 21.26C201.006 21.1 201.006 20.96 201.006 20.84C201.006 20.68 201.006 20.58 201.006 20.54V20.42C201.006 20.1 201.186 18.38 201.546 15.26C201.906 12.1 201.946 9.96 201.666 8.84C201.386 7.76 201.186 7.06 201.066 6.74ZM237.325 11.48C237.325 16.48 237.245 19.72 237.085 21.2C236.645 25.6 235.245 28.4 232.885 29.6C231.845 30.12 230.625 30.4 229.225 30.44C227.825 30.48 226.605 30.46 225.565 30.38C224.525 30.26 223.525 30.04 222.565 29.72C221.645 29.4 220.925 28.94 220.405 28.34C219.925 27.7 219.685 26.9 219.685 25.94C219.685 25.62 219.685 25.14 219.685 24.5C219.685 21.78 219.665 19.68 219.625 18.2C219.585 16.72 219.405 14.96 219.085 12.92C218.765 10.84 218.285 9.18 217.645 7.94C217.245 7.26 217.105 6.66 217.225 6.14C217.385 5.58 217.905 5.3 218.785 5.3C219.585 5.34 220.325 5.98 221.005 7.22C221.725 8.42 222.245 9.78 222.565 11.3C222.885 12.78 223.045 14.1 223.045 15.26C223.005 15.78 222.965 16.46 222.925 17.3C222.885 18.14 222.845 18.8 222.805 19.28C222.805 19.76 222.805 20.36 222.805 21.08C222.805 21.76 222.845 22.32 222.925 22.76C223.005 23.2 223.105 23.68 223.225 24.2C223.345 24.72 223.525 25.14 223.765 25.46C224.045 25.74 224.365 26.04 224.725 26.36C225.085 26.64 225.525 26.84 226.045 26.96C226.565 27.08 227.165 27.14 227.845 27.14C229.365 27.14 230.625 26.52 231.625 25.28C232.665 24.04 233.405 22.56 233.845 20.84C234.285 19.08 234.465 17.22 234.385 15.26C234.385 14.46 234.265 13.26 234.025 11.66C233.825 10.02 233.765 8.72 233.845 7.76C233.965 6.8 234.325 5.98 234.925 5.3C235.805 6.06 236.425 6.9 236.785 7.82C237.145 8.7 237.325 9.92 237.325 11.48ZM266.048 2.48V1.52C266.528 0.799998 267.048 0.439998 267.608 0.439998C268.168 0.559999 268.628 0.879999 268.988 1.4C269.348 1.88 269.568 2.46 269.648 3.14C269.728 3.78 269.788 4.5 269.828 5.3C269.868 6.1 269.848 6.92 269.768 7.76C269.728 8.56 269.728 9.34 269.768 10.1C269.688 10.7 269.988 13.42 270.668 18.26C271.348 23.1 271.688 26.22 271.688 27.62C271.688 28.26 271.528 28.78 271.208 29.18C270.928 29.58 270.528 29.8 270.008 29.84C268.968 29.84 268.268 29.12 267.908 27.68C267.708 26.92 267.528 24.68 267.368 20.96C267.208 17.2 267.108 15.12 267.068 14.72C266.708 12.12 266.188 10.1 265.508 8.66C262.148 12.26 259.588 16.38 257.828 21.02C257.748 21.18 257.608 21.74 257.408 22.7C257.208 23.62 256.948 24.32 256.628 24.8C256.348 25.24 255.908 25.44 255.308 25.4C254.868 25.56 253.968 25.1 252.608 24.02C251.288 22.94 250.008 21.84 248.768 20.72C247.528 19.56 246.788 19.02 246.548 19.1L245.528 22.94C245.128 24.34 244.528 25.42 243.728 26.18C243.328 25.42 243.108 24.54 243.068 23.54C243.028 22.54 243.108 21.24 243.308 19.64C243.548 18 243.688 17.02 243.728 16.7C243.768 15.94 243.208 14.72 242.048 13.04C240.928 11.32 240.388 10.16 240.428 9.56C240.668 9.56 241.188 9.5 241.988 9.38C242.788 9.22 243.208 9.14 243.248 9.14C243.168 7.94 243.148 7.22 243.188 6.98C243.228 6.7 243.408 6 243.728 4.88C244.768 5.56 245.428 6.28 245.708 7.04C245.988 7.76 246.248 9.24 246.488 11.48C246.728 13.4 247.508 15.18 248.828 16.82C250.188 18.46 251.808 19.86 253.688 21.02L266.048 2.48Z" fill="white"/>
</svg>
