<svg width="34" height="27" viewBox="0 0 34 27" fill="none" xmlns="http://www.w3.org/2000/svg">
<path d="M18.7956 2.85472L17.5419 0.334206C17.3347 -0.103457 16.6866 -0.119276 16.4581 0.334206L15.2044 2.85472L12.4259 3.2502C11.9319 3.32402 11.7194 3.93042 12.0859 4.29426L14.1047 6.24529L13.6266 8.99255C13.5522 9.48294 14.0622 9.8626 14.5191 9.63586L17.0106 8.32814L19.4862 9.61477C19.9431 9.84151 20.4584 9.46185 20.3788 8.97145L19.9006 6.2242L21.9194 4.29426C22.2806 3.9357 22.0734 3.3293 21.5794 3.2502L18.8009 2.85472H18.7956ZM13.6 13.501C12.6597 13.501 11.9 14.255 11.9 15.1884V25.3126C11.9 26.246 12.6597 27 13.6 27H20.4C21.3403 27 22.1 26.246 22.1 25.3126V15.1884C22.1 14.255 21.3403 13.501 20.4 13.501H13.6ZM1.7 16.8758C0.759687 16.8758 0 17.6298 0 18.5631V25.3126C0 26.246 0.759687 27 1.7 27H8.5C9.44031 27 10.2 26.246 10.2 25.3126V18.5631C10.2 17.6298 9.44031 16.8758 8.5 16.8758H1.7ZM23.8 21.9379V25.3126C23.8 26.246 24.5597 27 25.5 27H32.3C33.2403 27 34 26.246 34 25.3126V21.9379C34 21.0045 33.2403 20.2505 32.3 20.2505H25.5C24.5597 20.2505 23.8 21.0045 23.8 21.9379Z" fill="white"/>
</svg>
