<svg width="20" height="27" viewBox="0 0 20 27" fill="none" xmlns="http://www.w3.org/2000/svg">
<path d="M16.5298 2.35235C16.8371 1.62991 16.6079 0.786192 15.9779 0.322145C15.3478 -0.141901 14.4886 -0.0997147 13.9002 0.417064L0.569744 12.2291C0.0490234 12.6932 -0.138436 13.4367 0.106303 14.0906C0.351041 14.7445 0.975906 15.1874 1.66847 15.1874H7.4745L3.47016 24.6477C3.16293 25.3701 3.39205 26.2138 4.02212 26.6779C4.6522 27.1419 5.51139 27.0997 6.0998 26.5829L19.4303 14.7709C19.951 14.3068 20.1384 13.5633 19.8937 12.9094C19.649 12.2555 19.0293 11.8178 18.3315 11.8178H12.5255L16.5298 2.35235Z" fill="#E6DC00"/>
</svg>
