<svg width="273" height="31" viewBox="0 0 273 31" fill="none" xmlns="http://www.w3.org/2000/svg">
<path d="M3.84781 27.78C2.92781 28.06 2.12781 28.06 1.44781 27.78C0.807813 27.46 0.487813 26.9 0.487813 26.1C0.487813 25.82 0.587813 25.58 0.787813 25.38C0.987813 25.18 1.26781 25.02 1.62781 24.9C2.02781 24.78 2.40781 24.68 2.76781 24.6C3.12781 24.52 3.52781 24.44 3.96781 24.36C4.44781 24.28 4.80781 24.22 5.04781 24.18C7.44781 23.54 9.74781 22.3 11.9478 20.46C14.1478 18.62 15.9478 16.54 17.3478 14.22C15.8678 13.94 14.3078 14.02 12.6678 14.46C11.0678 14.86 9.40781 15.4 7.68781 16.08C5.96781 16.76 4.50781 17.14 3.30781 17.22C2.58781 17.26 2.00781 17.06 1.56781 16.62C1.12781 16.14 0.907813 15.56 0.907813 14.88C0.907813 13.28 2.10781 11.48 4.50781 9.48L11.5278 3.48C13.6078 1.72 15.2878 0.839999 16.5678 0.839999C17.4878 0.839999 18.0678 1.34 18.3078 2.34C13.7078 4.3 9.44781 7.8 5.52781 12.84C6.12781 12.92 8.16781 12.64 11.6478 12C15.1678 11.32 17.2078 11.02 17.7678 11.1C18.3678 11.14 18.8078 11.18 19.0878 11.22C19.3678 11.26 19.6878 11.34 20.0478 11.46C20.4078 11.58 20.6478 11.76 20.7678 12C20.9278 12.24 21.0278 12.58 21.0678 13.02C21.0678 13.66 20.7678 14.54 20.1678 15.66C18.6878 18.38 16.4678 20.82 13.5078 22.98C10.5878 25.1 7.36781 26.7 3.84781 27.78ZM24.4222 22.2C24.4222 21.4 24.4822 20.3 24.6022 18.9C24.7622 17.46 24.8422 16.36 24.8422 15.6C24.8822 14.84 24.7822 13.7 24.5422 12.18C24.4622 11.74 24.3222 10.92 24.1222 9.72C23.9622 8.52 23.7822 7.6 23.5822 6.96C23.3422 6.2 23.3422 5.52 23.5822 4.92C23.8622 4.28 24.3222 3.96 24.9622 3.96C25.6422 3.96 26.2222 4.38 26.7022 5.22C27.3422 6.38 27.7022 8.36 27.7822 11.16C27.8222 14.08 27.9422 15.9 28.1422 16.62C28.8222 16.58 29.9622 16.42 31.5622 16.14C33.2022 15.82 35.1022 15.44 37.2622 15C39.4222 14.52 40.6622 14.26 40.9822 14.22C42.3022 13.98 43.2222 13.64 43.7422 13.2C44.3022 12.76 44.5822 11.98 44.5822 10.86C44.5822 10.3 44.5222 9.54 44.4022 8.58C44.3222 7.58 44.2822 6.68 44.2822 5.88C44.2822 5.04 44.3822 4.3 44.5822 3.66C44.9022 2.66 45.2822 2.16 45.7222 2.16C47.3622 2.64 48.1022 4.92 47.9422 9C47.9022 10.56 48.0622 11.7 48.4222 12.42C48.7822 13.14 49.4622 13.74 50.4622 14.22C49.3022 15.54 48.5622 17.02 48.2422 18.66C47.9622 20.3 47.9622 22.56 48.2422 25.44C48.2822 25.92 48.3422 26.44 48.4222 27C48.5022 27.56 48.5422 27.9 48.5422 28.02C48.5422 29.42 47.9022 30.04 46.6222 29.88C45.7022 29.72 45.1222 29 44.8822 27.72C44.6422 26.4 44.5822 24.98 44.7022 23.46C44.8622 21.9 44.8622 20.44 44.7022 19.08C44.5822 18.2 44.4422 17.38 44.2822 16.62C40.2822 17.14 35.8622 18.36 31.0222 20.28C30.4222 20.52 29.9622 20.72 29.6422 20.88C29.3222 21.04 28.9622 21.32 28.5622 21.72C28.1622 22.08 27.9222 22.5 27.8422 22.98C28.0022 23.54 28.1022 24.14 28.1422 24.78C28.1822 25.38 28.0622 25.96 27.7822 26.52C27.5422 27.08 27.1222 27.36 26.5222 27.36C25.1222 27.36 24.4222 25.64 24.4222 22.2ZM68.9478 19.74C67.8678 20.06 66.9278 20.26 66.1278 20.34C65.3678 20.38 64.4278 20.36 63.3078 20.28C62.1878 20.16 61.2678 20.1 60.5478 20.1C58.7078 20.1 57.5478 20.68 57.0678 21.84L56.1678 25.92C55.8878 27.36 55.0878 28.36 53.7678 28.92C53.4878 27.88 53.3478 27.02 53.3478 26.34C53.3478 25.62 53.4678 24.84 53.7078 24C53.9878 23.16 54.2678 22.44 54.5478 21.84C54.8678 21.2 55.1878 20.44 55.5078 19.56C55.8278 18.68 56.0278 17.86 56.1078 17.1C56.0678 16.74 56.2278 16.38 56.5878 16.02C56.9878 15.66 57.3878 15.36 57.7878 15.12C58.2278 14.88 58.4678 14.74 58.5078 14.7C59.3878 14.06 60.5478 12.64 61.9878 10.44C63.4678 8.2 64.1878 6.56 64.1478 5.52C64.1478 5.16 64.0478 4.7 63.8478 4.14C63.6478 3.58 63.5078 3.18 63.4278 2.94C63.3478 2.7 63.4478 2.34 63.7278 1.86C63.8878 1.58 64.5678 1.22 65.7678 0.78C67.0078 0.339998 67.9078 0.0799983 68.4678 -7.15256e-07C68.5078 0.319998 68.6078 1.4 68.7678 3.24C68.9278 5.08 69.1478 6.22 69.4278 6.66C70.3078 8.26 71.5878 10.72 73.2678 14.04C74.9478 17.36 76.5278 20.24 78.0078 22.68C79.2478 24.76 79.8678 26.52 79.8678 27.96C78.6678 27.76 77.6678 27.22 76.8678 26.34C76.4678 25.94 75.5478 24.28 74.1078 21.36C73.2278 19.52 71.5078 18.98 68.9478 19.74ZM62.7078 12.54C61.9078 13.54 61.5478 14.5 61.6278 15.42C61.7478 16.34 62.4478 16.9 63.7278 17.1C67.0478 17.58 69.7278 17.58 71.7678 17.1C71.2478 15.46 70.4278 13.76 69.3078 12C68.2278 10.24 67.1478 8.94 66.0678 8.1C65.7478 8.5 64.6278 9.98 62.7078 12.54ZM84.8394 5.28C85.9594 5.08 87.9394 5.02 90.7794 5.1C93.6594 5.18 95.5794 5.06 96.5394 4.74C96.8994 4.78 97.4394 4.82 98.1594 4.86C98.8794 4.9 99.4794 4.96 99.9594 5.04C100.439 5.12 100.939 5.22 101.459 5.34C102.019 5.46 102.439 5.68 102.719 6C102.999 6.32 103.139 6.72 103.139 7.2C103.139 7.8 102.919 8.38 102.479 8.94C102.039 9.46 101.579 9.86 101.099 10.14C100.659 10.42 100.019 10.8 99.1794 11.28C98.3794 11.72 97.8594 12.02 97.6194 12.18C96.8194 12.66 94.2394 13.98 89.8794 16.14C91.6394 17.78 93.6794 19.2 95.9994 20.4C98.3594 21.56 101.239 22.82 104.639 24.18C106.279 24.82 107.199 26.08 107.399 27.96C106.639 28.04 105.779 27.92 104.819 27.6C103.859 27.28 102.819 26.84 101.699 26.28C100.619 25.68 99.8394 25.3 99.3594 25.14C98.3994 24.82 96.3794 23.74 93.2994 21.9C90.2594 20.02 88.3394 19.1 87.5394 19.14C86.8194 19.18 86.3994 19.62 86.2794 20.46C86.1594 21.26 86.0994 22.24 86.0994 23.4C86.1394 24.52 85.9994 25.34 85.6794 25.86C85.3594 25.9 84.8594 25.98 84.1794 26.1C84.0594 25.7 83.9594 25.3 83.8794 24.9C83.7994 24.46 83.7194 23.96 83.6394 23.4C83.5994 22.8 83.5594 22.34 83.5194 22.02C83.4794 21.7 83.4394 21.18 83.3994 20.46C83.3994 19.7 83.3994 19.2 83.3994 18.96C83.3994 18.72 83.3994 18.14 83.3994 17.22C83.3994 16.3 83.3994 15.76 83.3994 15.6C83.3994 14.88 83.3394 13.88 83.2194 12.6C83.0994 11.32 83.0394 10.2 83.0394 9.24C83.0794 8.28 83.2394 7.4 83.5194 6.6C83.8394 5.84 84.2794 5.4 84.8394 5.28ZM98.3994 8.1C92.7194 7.34 88.9794 7.84 87.1794 9.6C87.0194 9.8 86.8994 10.02 86.8194 10.26C86.7394 10.46 86.6994 10.76 86.6994 11.16C86.6994 11.52 86.6994 11.8 86.6994 12C86.7394 12.2 86.7994 12.54 86.8794 13.02C86.9994 13.46 87.0594 13.72 87.0594 13.8C89.2594 13.36 91.1994 12.7 92.8794 11.82C94.5994 10.9 96.4394 9.66 98.3994 8.1ZM118.018 26.58C117.138 26.86 116.318 26.84 115.558 26.52C114.838 26.2 114.418 25.74 114.298 25.14C114.178 24.54 114.398 23.92 114.958 23.28C115.438 22.76 116.138 22.44 117.058 22.32C117.538 22.24 119.178 22 121.978 21.6C124.778 21.16 126.938 20.76 128.458 20.4C129.098 20.24 130.018 19.92 131.218 19.44C132.418 18.92 133.378 18.64 134.098 18.6C134.738 18.52 135.298 18.74 135.778 19.26C136.258 19.74 136.518 20.26 136.558 20.82C136.558 21.14 136.418 21.44 136.138 21.72C135.858 21.96 135.438 22.14 134.878 22.26C129.278 23.3 123.658 24.74 118.018 26.58ZM134.638 11.82C135.318 11.78 135.918 11.92 136.438 12.24C136.958 12.56 137.218 12.98 137.218 13.5C137.218 14.38 136.538 14.94 135.178 15.18C134.778 15.22 134.138 15.32 133.258 15.48C132.378 15.6 131.818 15.68 131.578 15.72C131.338 15.76 130.898 15.84 130.258 15.96C129.658 16.08 129.138 16.22 128.698 16.38C128.258 16.5 127.678 16.66 126.958 16.86C126.238 17.06 125.438 17.3 124.558 17.58C122.238 18.3 120.678 18.92 119.878 19.44C118.158 20.56 117.298 22.18 117.298 24.3C117.298 26.26 117.178 27.64 116.938 28.44C115.658 28.24 114.858 27.48 114.538 26.16C114.138 24.48 113.678 23.34 113.158 22.74C113.078 22.66 112.918 22.52 112.678 22.32C112.478 22.12 112.358 22 112.318 21.96C112.278 21.92 112.178 21.82 112.018 21.66C111.898 21.5 111.838 21.4 111.838 21.36C111.838 21.28 111.798 21.18 111.718 21.06C111.638 20.94 111.618 20.86 111.658 20.82C111.698 20.74 111.718 20.64 111.718 20.52C111.758 20.4 111.798 20.3 111.838 20.22C111.918 20.1 111.998 19.98 112.078 19.86C112.198 19.7 112.338 19.54 112.498 19.38C112.578 19.26 112.718 19.1 112.918 18.9C113.118 18.7 113.238 18.58 113.278 18.54C113.318 18.46 113.398 18.36 113.518 18.24C113.638 18.08 113.698 17.94 113.698 17.82C113.738 17.7 113.798 17.54 113.878 17.34C113.958 17.14 114.038 16.9 114.118 16.62C114.558 14.74 114.158 13.78 112.918 13.74C112.118 13.7 111.538 13.32 111.178 12.6C110.818 11.88 110.958 11.28 111.598 10.8C112.158 10.4 112.598 10.04 112.918 9.72C113.238 9.4 113.538 8.94 113.818 8.34C114.138 7.74 114.318 7.06 114.358 6.3C114.478 4.54 115.018 3.4 115.978 2.88C116.058 2.96 116.158 3.06 116.278 3.18C116.438 3.26 116.538 3.34 116.578 3.42C116.658 3.5 116.758 3.6 116.878 3.72C116.998 3.8 117.078 3.9 117.118 4.02C117.198 4.14 117.278 4.3 117.358 4.5C117.438 4.7 117.518 4.92 117.598 5.16L118.378 7.56C118.858 7.4 119.518 7.14 120.358 6.78C121.238 6.38 121.998 6.02 122.638 5.7C123.318 5.38 124.118 5.06 125.038 4.74C125.998 4.38 126.818 4.12 127.498 3.96C128.218 3.8 129.018 3.7 129.898 3.66C130.818 3.62 131.598 3.74 132.238 4.02C132.718 4.18 133.138 4.58 133.498 5.22C132.178 6.06 129.858 7.04 126.538 8.16C123.258 9.24 121.038 10.06 119.878 10.62C117.638 11.7 116.818 13.54 117.418 16.14C119.258 15.9 122.078 15.16 125.878 13.92C129.678 12.68 132.598 11.98 134.638 11.82ZM169.899 23.1C169.899 22.26 169.939 21.24 170.019 20.04C170.139 18.84 170.259 17.8 170.379 16.92C170.499 16.04 170.519 15.14 170.439 14.22C170.399 13.26 170.219 12.48 169.899 11.88C169.619 11.24 169.459 10.68 169.419 10.2C169.419 9.68 169.479 9.24 169.599 8.88C169.759 8.52 169.919 8.04 170.079 7.44C170.239 6.8 170.319 6.14 170.319 5.46C170.319 4.26 170.339 3.54 170.379 3.3C171.779 3.3 172.719 3.68 173.199 4.44C173.279 4.56 173.599 5.6 174.159 7.56C174.239 7.56 175.999 7.1 179.439 6.18C182.879 5.22 185.059 4.74 185.979 4.74C187.139 4.74 187.919 4.92 188.319 5.28C188.719 5.6 188.919 6.26 188.919 7.26C188.919 7.9 188.719 8.48 188.319 9C187.919 9.52 187.299 10.1 186.459 10.74C185.659 11.38 185.199 11.76 185.079 11.88C185.399 11.92 186.999 11.98 189.879 12.06C191.759 12.14 193.139 12.54 194.019 13.26C194.939 13.94 195.399 15.08 195.399 16.68C195.399 17.92 194.959 19.06 194.079 20.1C193.239 21.14 192.259 21.96 191.139 22.56C190.059 23.16 188.819 23.7 187.419 24.18C187.139 24.3 186.039 24.74 184.119 25.5C182.199 26.22 180.459 26.84 178.899 27.36C177.339 27.84 176.239 28.04 175.599 27.96C175.479 28.24 175.239 28.4 174.879 28.44C174.559 28.44 174.319 28.28 174.159 27.96C173.279 28.16 172.719 28.26 172.479 28.26C171.879 28.26 171.399 28.14 171.039 27.9C170.719 27.62 170.479 27.18 170.319 26.58C170.159 25.98 170.059 25.48 170.019 25.08C169.979 24.64 169.939 23.98 169.899 23.1ZM182.259 9.48C179.819 9.2 177.739 9.64 176.019 10.8C174.299 11.92 173.679 13.54 174.159 15.66C174.759 15.38 175.699 14.74 176.979 13.74C178.299 12.7 179.479 11.74 180.519 10.86C181.559 9.98 182.139 9.52 182.259 9.48ZM192.639 16.14C191.199 15.62 189.559 15.34 187.719 15.3C185.919 15.22 184.139 15.42 182.379 15.9C180.659 16.34 179.099 16.96 177.699 17.76C176.299 18.56 175.219 19.62 174.459 20.94C173.699 22.22 173.439 23.62 173.679 25.14C183.359 23.42 189.679 20.42 192.639 16.14ZM204.854 26.58C203.974 26.86 203.154 26.84 202.394 26.52C201.674 26.2 201.254 25.74 201.134 25.14C201.014 24.54 201.234 23.92 201.794 23.28C202.274 22.76 202.974 22.44 203.894 22.32C204.374 22.24 206.014 22 208.814 21.6C211.614 21.16 213.774 20.76 215.294 20.4C215.934 20.24 216.854 19.92 218.054 19.44C219.254 18.92 220.214 18.64 220.934 18.6C221.574 18.52 222.134 18.74 222.614 19.26C223.094 19.74 223.354 20.26 223.394 20.82C223.394 21.14 223.254 21.44 222.974 21.72C222.694 21.96 222.274 22.14 221.714 22.26C216.114 23.3 210.494 24.74 204.854 26.58ZM221.474 11.82C222.154 11.78 222.754 11.92 223.274 12.24C223.794 12.56 224.054 12.98 224.054 13.5C224.054 14.38 223.374 14.94 222.014 15.18C221.614 15.22 220.974 15.32 220.094 15.48C219.214 15.6 218.654 15.68 218.414 15.72C218.174 15.76 217.734 15.84 217.094 15.96C216.494 16.08 215.974 16.22 215.534 16.38C215.094 16.5 214.514 16.66 213.794 16.86C213.074 17.06 212.274 17.3 211.394 17.58C209.074 18.3 207.514 18.92 206.714 19.44C204.994 20.56 204.134 22.18 204.134 24.3C204.134 26.26 204.014 27.64 203.774 28.44C202.494 28.24 201.694 27.48 201.374 26.16C200.974 24.48 200.514 23.34 199.994 22.74C199.914 22.66 199.754 22.52 199.514 22.32C199.314 22.12 199.194 22 199.154 21.96C199.114 21.92 199.014 21.82 198.854 21.66C198.734 21.5 198.674 21.4 198.674 21.36C198.674 21.28 198.634 21.18 198.554 21.06C198.474 20.94 198.454 20.86 198.494 20.82C198.534 20.74 198.554 20.64 198.554 20.52C198.594 20.4 198.634 20.3 198.674 20.22C198.754 20.1 198.834 19.98 198.914 19.86C199.034 19.7 199.174 19.54 199.334 19.38C199.414 19.26 199.554 19.1 199.754 18.9C199.954 18.7 200.074 18.58 200.114 18.54C200.154 18.46 200.234 18.36 200.354 18.24C200.474 18.08 200.534 17.94 200.534 17.82C200.574 17.7 200.634 17.54 200.714 17.34C200.794 17.14 200.874 16.9 200.954 16.62C201.394 14.74 200.994 13.78 199.754 13.74C198.954 13.7 198.374 13.32 198.014 12.6C197.654 11.88 197.794 11.28 198.434 10.8C198.994 10.4 199.434 10.04 199.754 9.72C200.074 9.4 200.374 8.94 200.654 8.34C200.974 7.74 201.154 7.06 201.194 6.3C201.314 4.54 201.854 3.4 202.814 2.88C202.894 2.96 202.994 3.06 203.114 3.18C203.274 3.26 203.374 3.34 203.414 3.42C203.494 3.5 203.594 3.6 203.714 3.72C203.834 3.8 203.914 3.9 203.954 4.02C204.034 4.14 204.114 4.3 204.194 4.5C204.274 4.7 204.354 4.92 204.434 5.16L205.214 7.56C205.694 7.4 206.354 7.14 207.194 6.78C208.074 6.38 208.834 6.02 209.474 5.7C210.154 5.38 210.954 5.06 211.874 4.74C212.834 4.38 213.654 4.12 214.334 3.96C215.054 3.8 215.854 3.7 216.734 3.66C217.654 3.62 218.434 3.74 219.074 4.02C219.554 4.18 219.974 4.58 220.334 5.22C219.014 6.06 216.694 7.04 213.374 8.16C210.094 9.24 207.874 10.06 206.714 10.62C204.474 11.7 203.654 13.54 204.254 16.14C206.094 15.9 208.914 15.16 212.714 13.92C216.514 12.68 219.434 11.98 221.474 11.82ZM238.375 2.34C239.575 2.94 240.495 3.3 241.135 3.42C241.815 3.5 242.995 3.44 244.675 3.24C245.795 3.08 246.655 3 247.255 3C247.855 3 248.455 3.16 249.055 3.48C249.535 3.72 249.775 4.3 249.775 5.22C248.615 5.22 246.555 5.54 243.595 6.18C243.035 6.3 242.575 6.56 242.215 6.96C241.895 7.36 241.695 7.9 241.615 8.58C241.575 9.26 241.555 9.9 241.555 10.5C241.555 11.1 241.595 11.84 241.675 12.72C241.755 13.56 241.795 14.2 241.795 14.64C241.795 15.8 241.715 17.42 241.555 19.5C241.395 21.58 241.315 23.18 241.315 24.3C241.315 26.14 241.175 27.3 240.895 27.78C240.655 28.34 240.195 28.64 239.515 28.68C238.835 28.72 238.295 28.34 237.895 27.54C237.495 26.74 237.335 25.94 237.415 25.14C237.455 24.74 237.615 23.56 237.895 21.6C238.175 19.64 238.375 18.02 238.495 16.74C238.615 15.42 238.675 14.08 238.675 12.72C238.675 11.92 238.655 11.26 238.615 10.74C238.575 10.18 238.455 9.6 238.255 9C238.095 8.4 237.875 7.92 237.595 7.56C237.315 7.2 236.915 6.9 236.395 6.66C235.915 6.42 235.335 6.3 234.655 6.3C234.135 6.3 233.195 6.42 231.835 6.66C230.515 6.86 229.335 6.96 228.295 6.96C227.295 6.92 226.515 6.68 225.955 6.24C225.235 5.64 224.795 4.66 224.635 3.3C226.235 2.94 227.795 2.86 229.315 3.06C230.835 3.22 232.495 3.3 234.295 3.3C236.095 3.26 237.455 2.94 238.375 2.34ZM255.098 27.78C254.178 28.06 253.378 28.06 252.698 27.78C252.058 27.46 251.738 26.9 251.738 26.1C251.738 25.82 251.838 25.58 252.038 25.38C252.238 25.18 252.518 25.02 252.878 24.9C253.278 24.78 253.658 24.68 254.018 24.6C254.378 24.52 254.778 24.44 255.218 24.36C255.698 24.28 256.058 24.22 256.298 24.18C258.698 23.54 260.998 22.3 263.198 20.46C265.398 18.62 267.198 16.54 268.598 14.22C267.118 13.94 265.558 14.02 263.918 14.46C262.318 14.86 260.658 15.4 258.938 16.08C257.218 16.76 255.758 17.14 254.558 17.22C253.838 17.26 253.258 17.06 252.818 16.62C252.378 16.14 252.158 15.56 252.158 14.88C252.158 13.28 253.358 11.48 255.758 9.48L262.778 3.48C264.858 1.72 266.538 0.839999 267.818 0.839999C268.738 0.839999 269.318 1.34 269.558 2.34C264.958 4.3 260.698 7.8 256.778 12.84C257.378 12.92 259.418 12.64 262.898 12C266.418 11.32 268.458 11.02 269.018 11.1C269.618 11.14 270.058 11.18 270.338 11.22C270.618 11.26 270.938 11.34 271.298 11.46C271.658 11.58 271.898 11.76 272.018 12C272.178 12.24 272.278 12.58 272.318 13.02C272.318 13.66 272.018 14.54 271.418 15.66C269.938 18.38 267.718 20.82 264.758 22.98C261.838 25.1 258.618 26.7 255.098 27.78Z" fill="white"/>
</svg>
