<svg width="33" height="27" viewBox="0 0 33 27" fill="none" xmlns="http://www.w3.org/2000/svg">
<path d="M7.425 0C8.51902 0 9.56823 0.444474 10.3418 1.23564C11.1154 2.02681 11.55 3.09987 11.55 4.21875C11.55 5.33763 11.1154 6.41069 10.3418 7.20186C9.56823 7.99303 8.51902 8.4375 7.425 8.4375C6.33098 8.4375 5.28177 7.99303 4.50818 7.20186C3.7346 6.41069 3.3 5.33763 3.3 4.21875C3.3 3.09987 3.7346 2.02681 4.50818 1.23564C5.28177 0.444474 6.33098 0 7.425 0ZM26.4 0C27.494 0 28.5432 0.444474 29.3168 1.23564C30.0904 2.02681 30.525 3.09987 30.525 4.21875C30.525 5.33763 30.0904 6.41069 29.3168 7.20186C28.5432 7.99303 27.494 8.4375 26.4 8.4375C25.306 8.4375 24.2568 7.99303 23.4832 7.20186C22.7096 6.41069 22.275 5.33763 22.275 4.21875C22.275 3.09987 22.7096 2.02681 23.4832 1.23564C24.2568 0.444474 25.306 0 26.4 0ZM0 15.7518C0 12.6457 2.46469 10.125 5.50172 10.125H7.70344C8.52328 10.125 9.30188 10.3096 10.0031 10.6365C9.93609 11.0162 9.90516 11.4117 9.90516 11.8125C9.90516 13.827 10.7714 15.6357 12.1378 16.875C12.1275 16.875 12.1172 16.875 12.1017 16.875H1.09828C0.495 16.875 0 16.3688 0 15.7518ZM20.8983 16.875C20.888 16.875 20.8777 16.875 20.8622 16.875C22.2337 15.6357 23.0948 13.827 23.0948 11.8125C23.0948 11.4117 23.0588 11.0215 22.9969 10.6365C23.6981 10.3043 24.4767 10.125 25.2966 10.125H27.4983C30.5353 10.125 33 12.6457 33 15.7518C33 16.374 32.505 16.875 31.9017 16.875H20.9034H20.8983ZM11.55 11.8125C11.55 10.4698 12.0715 9.18217 12.9998 8.23277C13.9281 7.28337 15.1872 6.75 16.5 6.75C17.8128 6.75 19.0719 7.28337 20.0002 8.23277C20.9285 9.18217 21.45 10.4698 21.45 11.8125C21.45 13.1552 20.9285 14.4428 20.0002 15.3922C19.0719 16.3416 17.8128 16.875 16.5 16.875C15.1872 16.875 13.9281 16.3416 12.9998 15.3922C12.0715 14.4428 11.55 13.1552 11.55 11.8125ZM6.6 25.592C6.6 21.7107 9.67828 18.5625 13.4733 18.5625H19.5216C23.3217 18.5625 26.4 21.7107 26.4 25.592C26.4 26.3672 25.7864 27 25.0233 27H7.97156C7.21359 27 6.59484 26.3725 6.59484 25.592H6.6Z" fill="white"/>
</svg>
