<svg width="272" height="29" viewBox="0 0 272 29" fill="none" xmlns="http://www.w3.org/2000/svg">
<path d="M13.9318 2.34C15.1318 2.94 16.0518 3.3 16.6918 3.42C17.3718 3.5 18.5518 3.44 20.2318 3.24C21.3518 3.08 22.2118 3 22.8118 3C23.4118 3 24.0118 3.16 24.6118 3.48C25.0918 3.72 25.3318 4.3 25.3318 5.22C24.1718 5.22 22.1118 5.54 19.1518 6.18C18.5918 6.3 18.1318 6.56 17.7718 6.96C17.4518 7.36 17.2518 7.9 17.1718 8.58C17.1318 9.26 17.1118 9.9 17.1118 10.5C17.1118 11.1 17.1518 11.84 17.2318 12.72C17.3118 13.56 17.3518 14.2 17.3518 14.64C17.3518 15.8 17.2718 17.42 17.1118 19.5C16.9518 21.58 16.8718 23.18 16.8718 24.3C16.8718 26.14 16.7318 27.3 16.4518 27.78C16.2118 28.34 15.7518 28.64 15.0718 28.68C14.3918 28.72 13.8518 28.34 13.4518 27.54C13.0518 26.74 12.8918 25.94 12.9718 25.14C13.0118 24.74 13.1718 23.56 13.4518 21.6C13.7318 19.64 13.9318 18.02 14.0518 16.74C14.1718 15.42 14.2318 14.08 14.2318 12.72C14.2318 11.92 14.2118 11.26 14.1718 10.74C14.1318 10.18 14.0118 9.6 13.8118 9C13.6518 8.4 13.4318 7.92 13.1518 7.56C12.8718 7.2 12.4718 6.9 11.9518 6.66C11.4718 6.42 10.8918 6.3 10.2118 6.3C9.6918 6.3 8.7518 6.42 7.3918 6.66C6.0718 6.86 4.8918 6.96 3.8518 6.96C2.8518 6.92 2.0718 6.68 1.5118 6.24C0.791797 5.64 0.351797 4.66 0.191797 3.3C1.7918 2.94 3.3518 2.86 4.8718 3.06C6.3918 3.22 8.0518 3.3 9.8518 3.3C11.6518 3.26 13.0118 2.94 13.9318 2.34ZM28.7945 5.28C29.9145 5.08 31.8945 5.02 34.7345 5.1C37.6145 5.18 39.5345 5.06 40.4945 4.74C40.8545 4.78 41.3945 4.82 42.1145 4.86C42.8345 4.9 43.4345 4.96 43.9145 5.04C44.3945 5.12 44.8945 5.22 45.4145 5.34C45.9745 5.46 46.3945 5.68 46.6745 6C46.9545 6.32 47.0945 6.72 47.0945 7.2C47.0945 7.8 46.8745 8.38 46.4345 8.94C45.9945 9.46 45.5345 9.86 45.0545 10.14C44.6145 10.42 43.9745 10.8 43.1345 11.28C42.3345 11.72 41.8145 12.02 41.5745 12.18C40.7745 12.66 38.1945 13.98 33.8345 16.14C35.5945 17.78 37.6345 19.2 39.9545 20.4C42.3145 21.56 45.1945 22.82 48.5945 24.18C50.2345 24.82 51.1545 26.08 51.3545 27.96C50.5945 28.04 49.7345 27.92 48.7745 27.6C47.8145 27.28 46.7745 26.84 45.6545 26.28C44.5745 25.68 43.7945 25.3 43.3145 25.14C42.3545 24.82 40.3345 23.74 37.2545 21.9C34.2145 20.02 32.2945 19.1 31.4945 19.14C30.7745 19.18 30.3545 19.62 30.2345 20.46C30.1145 21.26 30.0545 22.24 30.0545 23.4C30.0945 24.52 29.9545 25.34 29.6345 25.86C29.3145 25.9 28.8145 25.98 28.1345 26.1C28.0145 25.7 27.9145 25.3 27.8345 24.9C27.7545 24.46 27.6745 23.96 27.5945 23.4C27.5545 22.8 27.5145 22.34 27.4745 22.02C27.4345 21.7 27.3945 21.18 27.3545 20.46C27.3545 19.7 27.3545 19.2 27.3545 18.96C27.3545 18.72 27.3545 18.14 27.3545 17.22C27.3545 16.3 27.3545 15.76 27.3545 15.6C27.3545 14.88 27.2945 13.88 27.1745 12.6C27.0545 11.32 26.9945 10.2 26.9945 9.24C27.0345 8.28 27.1945 7.4 27.4745 6.6C27.7945 5.84 28.2345 5.4 28.7945 5.28ZM42.3545 8.1C36.6745 7.34 32.9345 7.84 31.1345 9.6C30.9745 9.8 30.8545 10.02 30.7745 10.26C30.6945 10.46 30.6545 10.76 30.6545 11.16C30.6545 11.52 30.6545 11.8 30.6545 12C30.6945 12.2 30.7545 12.54 30.8345 13.02C30.9545 13.46 31.0145 13.72 31.0145 13.8C33.2145 13.36 35.1545 12.7 36.8345 11.82C38.5545 10.9 40.3945 9.66 42.3545 8.1ZM70.7935 19.74C69.7135 20.06 68.7735 20.26 67.9735 20.34C67.2135 20.38 66.2735 20.36 65.1535 20.28C64.0335 20.16 63.1135 20.1 62.3935 20.1C60.5535 20.1 59.3935 20.68 58.9135 21.84L58.0135 25.92C57.7335 27.36 56.9335 28.36 55.6135 28.92C55.3335 27.88 55.1935 27.02 55.1935 26.34C55.1935 25.62 55.3135 24.84 55.5535 24C55.8335 23.16 56.1135 22.44 56.3935 21.84C56.7135 21.2 57.0335 20.44 57.3535 19.56C57.6735 18.68 57.8735 17.86 57.9535 17.1C57.9135 16.74 58.0735 16.38 58.4335 16.02C58.8335 15.66 59.2335 15.36 59.6335 15.12C60.0735 14.88 60.3135 14.74 60.3535 14.7C61.2335 14.06 62.3935 12.64 63.8335 10.44C65.3135 8.2 66.0335 6.56 65.9935 5.52C65.9935 5.16 65.8935 4.7 65.6935 4.14C65.4935 3.58 65.3535 3.18 65.2735 2.94C65.1935 2.7 65.2935 2.34 65.5735 1.86C65.7335 1.58 66.4135 1.22 67.6135 0.78C68.8535 0.339998 69.7535 0.0799983 70.3135 -7.15256e-07C70.3535 0.319998 70.4535 1.4 70.6135 3.24C70.7735 5.08 70.9935 6.22 71.2735 6.66C72.1535 8.26 73.4335 10.72 75.1135 14.04C76.7935 17.36 78.3735 20.24 79.8535 22.68C81.0935 24.76 81.7135 26.52 81.7135 27.96C80.5135 27.76 79.5135 27.22 78.7135 26.34C78.3135 25.94 77.3935 24.28 75.9535 21.36C75.0735 19.52 73.3535 18.98 70.7935 19.74ZM64.5535 12.54C63.7535 13.54 63.3935 14.5 63.4735 15.42C63.5935 16.34 64.2935 16.9 65.5735 17.1C68.8935 17.58 71.5735 17.58 73.6135 17.1C73.0935 15.46 72.2735 13.76 71.1535 12C70.0735 10.24 68.9935 8.94 67.9135 8.1C67.5935 8.5 66.4735 9.98 64.5535 12.54ZM89.5051 24.66C91.0251 24.66 92.6851 24.36 94.4851 23.76C96.3251 23.12 97.9251 22.46 99.2851 21.78C100.685 21.1 102.305 20.56 104.145 20.16C105.985 19.72 107.745 19.64 109.425 19.92C108.745 21.08 107.905 21.92 106.905 22.44C105.905 22.92 104.365 23.46 102.285 24.06C102.085 24.1 101.925 24.14 101.805 24.18C100.965 24.42 99.2851 24.96 96.7651 25.8C94.2451 26.64 92.2851 27.22 90.8851 27.54C89.2051 27.9 87.8851 27.66 86.9251 26.82C85.9651 25.98 85.4051 24.84 85.2451 23.4C85.1251 21.92 85.2251 20.38 85.5451 18.78C85.9051 17.18 86.4251 15.82 87.1051 14.7C88.1051 13.06 89.4851 11.34 91.2451 9.54C93.0451 7.7 94.6651 6.42 96.1051 5.7C96.3451 5.62 96.7651 5.42 97.3651 5.1C97.9651 4.74 98.4651 4.48 98.8651 4.32C99.3051 4.12 99.7051 4.02 100.065 4.02C100.625 4.02 101.025 4.28 101.265 4.8C101.505 5.32 101.465 5.8 101.145 6.24C100.985 6.52 100.825 6.74 100.665 6.9C100.545 7.06 100.345 7.24 100.065 7.44C99.7851 7.6 99.5651 7.72 99.4051 7.8C99.2851 7.88 98.9451 8.04 98.3851 8.28C97.8651 8.52 97.4651 8.72 97.1851 8.88C95.9451 9.44 94.8651 10.12 93.9451 10.92C93.0651 11.68 92.1251 12.64 91.1251 13.8C90.7651 14.2 90.4451 14.6 90.1651 15C89.9251 15.36 89.7251 15.68 89.5651 15.96C89.4051 16.2 89.2451 16.54 89.0851 16.98C88.9251 17.38 88.8051 17.68 88.7251 17.88C88.6451 18.04 88.5051 18.42 88.3051 19.02C88.1451 19.58 88.0251 20 87.9451 20.28C87.7851 20.76 87.6651 21.26 87.5851 21.78C87.5451 22.26 87.5451 22.74 87.5851 23.22C87.6651 23.66 87.8651 24.02 88.1851 24.3C88.5051 24.54 88.9451 24.66 89.5051 24.66ZM110.844 25.5C110.844 25.22 110.884 24.74 110.964 24.06C111.084 23.38 111.184 22.78 111.264 22.26C111.384 21.7 111.424 21.4 111.384 21.36C111.384 20.16 111.344 17.84 111.264 14.4C111.224 10.92 111.204 8.26 111.204 6.42C111.204 5.66 111.224 5.08 111.264 4.68C111.304 4.28 111.444 3.88 111.684 3.48C111.924 3.08 112.304 2.88 112.824 2.88C113.344 2.84 113.744 2.94 114.024 3.18C114.304 3.42 114.464 3.78 114.504 4.26C114.544 4.7 114.544 5.16 114.504 5.64C114.464 6.08 114.404 6.6 114.324 7.2C114.244 7.8 114.204 8.24 114.204 8.52C114.204 9 114.164 9.76 114.084 10.8C114.004 11.84 113.964 12.76 113.964 13.56C113.964 14.36 114.044 15.06 114.204 15.66C114.844 15.22 115.644 14.72 116.604 14.16C117.564 13.6 118.404 13.14 119.124 12.78C119.844 12.38 120.844 11.88 122.124 11.28C123.404 10.64 124.244 10.2 124.644 9.96C124.804 9.96 125.304 9.62 126.144 8.94C127.024 8.26 127.944 7.54 128.904 6.78C129.904 5.98 130.944 5.32 132.024 4.8C133.144 4.24 134.004 4.06 134.604 4.26C134.324 5.5 133.544 6.7 132.264 7.86C131.024 8.98 129.724 9.88 128.364 10.56C127.004 11.24 125.464 12 123.744 12.84C122.064 13.64 120.884 14.28 120.204 14.76C117.564 16.56 116.204 17.5 116.124 17.58C118.444 18.9 122.904 20.58 129.504 22.62C131.304 23.18 132.564 23.84 133.284 24.6C134.044 25.32 134.324 26.3 134.124 27.54C133.244 27.42 130.864 26.54 126.984 24.9L125.124 24.18C119.404 22.66 115.764 21.56 114.204 20.88C114.124 21.2 114.024 21.86 113.904 22.86C113.784 23.82 113.664 24.86 113.544 25.98C113.424 27.1 113.344 27.76 113.304 27.96C112.464 27.84 111.844 27.6 111.444 27.24C111.084 26.88 110.884 26.3 110.844 25.5ZM168.815 23.1C168.815 22.26 168.855 21.24 168.935 20.04C169.055 18.84 169.175 17.8 169.295 16.92C169.415 16.04 169.435 15.14 169.355 14.22C169.315 13.26 169.135 12.48 168.815 11.88C168.535 11.24 168.375 10.68 168.335 10.2C168.335 9.68 168.395 9.24 168.515 8.88C168.675 8.52 168.835 8.04 168.995 7.44C169.155 6.8 169.235 6.14 169.235 5.46C169.235 4.26 169.255 3.54 169.295 3.3C170.695 3.3 171.635 3.68 172.115 4.44C172.195 4.56 172.515 5.6 173.075 7.56C173.155 7.56 174.915 7.1 178.355 6.18C181.795 5.22 183.975 4.74 184.895 4.74C186.055 4.74 186.835 4.92 187.235 5.28C187.635 5.6 187.835 6.26 187.835 7.26C187.835 7.9 187.635 8.48 187.235 9C186.835 9.52 186.215 10.1 185.375 10.74C184.575 11.38 184.115 11.76 183.995 11.88C184.315 11.92 185.915 11.98 188.795 12.06C190.675 12.14 192.055 12.54 192.935 13.26C193.855 13.94 194.315 15.08 194.315 16.68C194.315 17.92 193.875 19.06 192.995 20.1C192.155 21.14 191.175 21.96 190.055 22.56C188.975 23.16 187.735 23.7 186.335 24.18C186.055 24.3 184.955 24.74 183.035 25.5C181.115 26.22 179.375 26.84 177.815 27.36C176.255 27.84 175.155 28.04 174.515 27.96C174.395 28.24 174.155 28.4 173.795 28.44C173.475 28.44 173.235 28.28 173.075 27.96C172.195 28.16 171.635 28.26 171.395 28.26C170.795 28.26 170.315 28.14 169.955 27.9C169.635 27.62 169.395 27.18 169.235 26.58C169.075 25.98 168.975 25.48 168.935 25.08C168.895 24.64 168.855 23.98 168.815 23.1ZM181.175 9.48C178.735 9.2 176.655 9.64 174.935 10.8C173.215 11.92 172.595 13.54 173.075 15.66C173.675 15.38 174.615 14.74 175.895 13.74C177.215 12.7 178.395 11.74 179.435 10.86C180.475 9.98 181.055 9.52 181.175 9.48ZM191.555 16.14C190.115 15.62 188.475 15.34 186.635 15.3C184.835 15.22 183.055 15.42 181.295 15.9C179.575 16.34 178.015 16.96 176.615 17.76C175.215 18.56 174.135 19.62 173.375 20.94C172.615 22.22 172.355 23.62 172.595 25.14C182.275 23.42 188.595 20.42 191.555 16.14ZM203.77 26.58C202.89 26.86 202.07 26.84 201.31 26.52C200.59 26.2 200.17 25.74 200.05 25.14C199.93 24.54 200.15 23.92 200.71 23.28C201.19 22.76 201.89 22.44 202.81 22.32C203.29 22.24 204.93 22 207.73 21.6C210.53 21.16 212.69 20.76 214.21 20.4C214.85 20.24 215.77 19.92 216.97 19.44C218.17 18.92 219.13 18.64 219.85 18.6C220.49 18.52 221.05 18.74 221.53 19.26C222.01 19.74 222.27 20.26 222.31 20.82C222.31 21.14 222.17 21.44 221.89 21.72C221.61 21.96 221.19 22.14 220.63 22.26C215.03 23.3 209.41 24.74 203.77 26.58ZM220.39 11.82C221.07 11.78 221.67 11.92 222.19 12.24C222.71 12.56 222.97 12.98 222.97 13.5C222.97 14.38 222.29 14.94 220.93 15.18C220.53 15.22 219.89 15.32 219.01 15.48C218.13 15.6 217.57 15.68 217.33 15.72C217.09 15.76 216.65 15.84 216.01 15.96C215.41 16.08 214.89 16.22 214.45 16.38C214.01 16.5 213.43 16.66 212.71 16.86C211.99 17.06 211.19 17.3 210.31 17.58C207.99 18.3 206.43 18.92 205.63 19.44C203.91 20.56 203.05 22.18 203.05 24.3C203.05 26.26 202.93 27.64 202.69 28.44C201.41 28.24 200.61 27.48 200.29 26.16C199.89 24.48 199.43 23.34 198.91 22.74C198.83 22.66 198.67 22.52 198.43 22.32C198.23 22.12 198.11 22 198.07 21.96C198.03 21.92 197.93 21.82 197.77 21.66C197.65 21.5 197.59 21.4 197.59 21.36C197.59 21.28 197.55 21.18 197.47 21.06C197.39 20.94 197.37 20.86 197.41 20.82C197.45 20.74 197.47 20.64 197.47 20.52C197.51 20.4 197.55 20.3 197.59 20.22C197.67 20.1 197.75 19.98 197.83 19.86C197.95 19.7 198.09 19.54 198.25 19.38C198.33 19.26 198.47 19.1 198.67 18.9C198.87 18.7 198.99 18.58 199.03 18.54C199.07 18.46 199.15 18.36 199.27 18.24C199.39 18.08 199.45 17.94 199.45 17.82C199.49 17.7 199.55 17.54 199.63 17.34C199.71 17.14 199.79 16.9 199.87 16.62C200.31 14.74 199.91 13.78 198.67 13.74C197.87 13.7 197.29 13.32 196.93 12.6C196.57 11.88 196.71 11.28 197.35 10.8C197.91 10.4 198.35 10.04 198.67 9.72C198.99 9.4 199.29 8.94 199.57 8.34C199.89 7.74 200.07 7.06 200.11 6.3C200.23 4.54 200.77 3.4 201.73 2.88C201.81 2.96 201.91 3.06 202.03 3.18C202.19 3.26 202.29 3.34 202.33 3.42C202.41 3.5 202.51 3.6 202.63 3.72C202.75 3.8 202.83 3.9 202.87 4.02C202.95 4.14 203.03 4.3 203.11 4.5C203.19 4.7 203.27 4.92 203.35 5.16L204.13 7.56C204.61 7.4 205.27 7.14 206.11 6.78C206.99 6.38 207.75 6.02 208.39 5.7C209.07 5.38 209.87 5.06 210.79 4.74C211.75 4.38 212.57 4.12 213.25 3.96C213.97 3.8 214.77 3.7 215.65 3.66C216.57 3.62 217.35 3.74 217.99 4.02C218.47 4.18 218.89 4.58 219.25 5.22C217.93 6.06 215.61 7.04 212.29 8.16C209.01 9.24 206.79 10.06 205.63 10.62C203.39 11.7 202.57 13.54 203.17 16.14C205.01 15.9 207.83 15.16 211.63 13.92C215.43 12.68 218.35 11.98 220.39 11.82ZM237.291 2.34C238.491 2.94 239.411 3.3 240.051 3.42C240.731 3.5 241.911 3.44 243.591 3.24C244.711 3.08 245.571 3 246.171 3C246.771 3 247.371 3.16 247.971 3.48C248.451 3.72 248.691 4.3 248.691 5.22C247.531 5.22 245.471 5.54 242.511 6.18C241.951 6.3 241.491 6.56 241.131 6.96C240.811 7.36 240.611 7.9 240.531 8.58C240.491 9.26 240.471 9.9 240.471 10.5C240.471 11.1 240.511 11.84 240.591 12.72C240.671 13.56 240.711 14.2 240.711 14.64C240.711 15.8 240.631 17.42 240.471 19.5C240.311 21.58 240.231 23.18 240.231 24.3C240.231 26.14 240.091 27.3 239.811 27.78C239.571 28.34 239.111 28.64 238.431 28.68C237.751 28.72 237.211 28.34 236.811 27.54C236.411 26.74 236.251 25.94 236.331 25.14C236.371 24.74 236.531 23.56 236.811 21.6C237.091 19.64 237.291 18.02 237.411 16.74C237.531 15.42 237.591 14.08 237.591 12.72C237.591 11.92 237.571 11.26 237.531 10.74C237.491 10.18 237.371 9.6 237.171 9C237.011 8.4 236.791 7.92 236.511 7.56C236.231 7.2 235.831 6.9 235.311 6.66C234.831 6.42 234.251 6.3 233.571 6.3C233.051 6.3 232.111 6.42 230.751 6.66C229.431 6.86 228.251 6.96 227.211 6.96C226.211 6.92 225.431 6.68 224.871 6.24C224.151 5.64 223.711 4.66 223.551 3.3C225.151 2.94 226.711 2.86 228.231 3.06C229.751 3.22 231.411 3.3 233.211 3.3C235.011 3.26 236.371 2.94 237.291 2.34ZM254.014 27.78C253.094 28.06 252.294 28.06 251.614 27.78C250.974 27.46 250.654 26.9 250.654 26.1C250.654 25.82 250.754 25.58 250.954 25.38C251.154 25.18 251.434 25.02 251.794 24.9C252.194 24.78 252.574 24.68 252.934 24.6C253.294 24.52 253.694 24.44 254.134 24.36C254.614 24.28 254.974 24.22 255.214 24.18C257.614 23.54 259.914 22.3 262.114 20.46C264.314 18.62 266.114 16.54 267.514 14.22C266.034 13.94 264.474 14.02 262.834 14.46C261.234 14.86 259.574 15.4 257.854 16.08C256.134 16.76 254.674 17.14 253.474 17.22C252.754 17.26 252.174 17.06 251.734 16.62C251.294 16.14 251.074 15.56 251.074 14.88C251.074 13.28 252.274 11.48 254.674 9.48L261.694 3.48C263.774 1.72 265.454 0.839999 266.734 0.839999C267.654 0.839999 268.234 1.34 268.474 2.34C263.874 4.3 259.614 7.8 255.694 12.84C256.294 12.92 258.334 12.64 261.814 12C265.334 11.32 267.374 11.02 267.934 11.1C268.534 11.14 268.974 11.18 269.254 11.22C269.534 11.26 269.854 11.34 270.214 11.46C270.574 11.58 270.814 11.76 270.934 12C271.094 12.24 271.194 12.58 271.234 13.02C271.234 13.66 270.934 14.54 270.334 15.66C268.854 18.38 266.634 20.82 263.674 22.98C260.754 25.1 257.534 26.7 254.014 27.78Z" fill="white"/>
</svg>
