<svg width="29" height="29" viewBox="0 0 29 29" fill="none" xmlns="http://www.w3.org/2000/svg">
<path d="M28.75 14.5C28.75 22.3701 22.3701 28.75 14.5 28.75C6.62994 28.75 0.25 22.3701 0.25 14.5C0.25 6.62994 6.62994 0.25 14.5 0.25C22.3701 0.25 28.75 6.62994 28.75 14.5Z" fill="url(#paint0_linear_2582_9702)" stroke="white" stroke-width="0.5"/>
<path d="M19.2814 8.33958C19.5744 8.79235 19.5744 9.52765 19.2814 9.98042L13.2814 19.2531C12.9885 19.7059 12.5127 19.7059 12.2197 19.2531L9.21973 14.6168C8.92676 14.164 8.92676 13.4287 9.21973 12.9759C9.5127 12.5232 9.98848 12.5232 10.2814 12.9759L12.7518 16.7901L18.2221 8.33958C18.515 7.88681 18.9908 7.88681 19.2838 8.33958H19.2814Z" fill="white"/>
<defs>
<linearGradient id="paint0_linear_2582_9702" x1="0" y1="14.5" x2="29" y2="14.5" gradientUnits="userSpaceOnUse">
<stop stop-color="#F89B23"/>
<stop offset="1" stop-color="#FAC724"/>
</linearGradient>
</defs>
</svg>
